/* XPM */
static char * dcpp_16_xpm[] = {
"16 16 152 2",
"  	c None",
". 	c #141414",
"+ 	c #424242",
"@ 	c #454545",
"# 	c #202020",
"$ 	c #131313",
"% 	c #868686",
"& 	c #5E5E5E",
"* 	c #585858",
"= 	c #858585",
"- 	c #0D0D0D",
"; 	c #2B2B2B",
"> 	c #797979",
", 	c #8B8B8B",
"' 	c #838383",
") 	c #878787",
"! 	c #262626",
"~ 	c #000000",
"{ 	c #534B33",
"] 	c #A48726",
"^ 	c #A38729",
"/ 	c #534C38",
"( 	c #030303",
"_ 	c #5A5A5A",
": 	c #8B8985",
"< 	c #856833",
"[ 	c #7F663A",
"} 	c #8D8B88",
"| 	c #525252",
"1 	c #101010",
"2 	c #959595",
"3 	c #9B9B9B",
"4 	c #6C6C6C",
"5 	c #929292",
"6 	c #D1D1D1",
"7 	c #BFBFBF",
"8 	c #C2C2C2",
"9 	c #898989",
"0 	c #222222",
"a 	c #7D7D7D",
"b 	c #878682",
"c 	c #AD9547",
"d 	c #F8D567",
"e 	c #AA8E2E",
"f 	c #313130",
"g 	c #111111",
"h 	c #080708",
"i 	c #555555",
"j 	c #676767",
"k 	c #232323",
"l 	c #323232",
"m 	c #161616",
"n 	c #F1F1F1",
"o 	c #78693A",
"p 	c #FFE7A0",
"q 	c #FFF0C7",
"r 	c #B69F58",
"s 	c #2F2E2F",
"t 	c #5B595B",
"u 	c #353435",
"v 	c #969696",
"w 	c #181818",
"x 	c #3C3C3C",
"y 	c #FFFFFF",
"z 	c #746636",
"A 	c #FFDD71",
"B 	c #EDD486",
"C 	c #6F5F2F",
"D 	c #383638",
"E 	c #656465",
"F 	c #383738",
"G 	c #020202",
"H 	c #A2A2A2",
"I 	c #242424",
"J 	c #404040",
"K 	c #B1B1B0",
"L 	c #64531C",
"M 	c #84702F",
"N 	c #B49739",
"O 	c #65551E",
"P 	c #191919",
"Q 	c #080808",
"R 	c #1C1C1C",
"S 	c #EDEDED",
"T 	c #272727",
"U 	c #0B0B0B",
"V 	c #FCFCFC",
"W 	c #78693E",
"X 	c #FFE7A1",
"Y 	c #FFE9AA",
"Z 	c #FED64F",
"` 	c #433B1D",
" .	c #7A7A7A",
"..	c #E2E2E2",
"+.	c #F2F2F2",
"@.	c #070707",
"#.	c #1A1813",
"$.	c #928D7E",
"%.	c #EBEBEB",
"&.	c #826E2F",
"*.	c #FFE69B",
"=.	c #FFE8A3",
"-.	c #FFD64B",
";.	c #776D48",
">.	c #989488",
",.	c #564F3C",
"'.	c #978C69",
").	c #AD956A",
"!.	c #FAE192",
"~.	c #928872",
"{.	c #7B7769",
"].	c #C2A134",
"^.	c #F9CF40",
"/.	c #977C20",
"(.	c #AEAEAD",
"_.	c #A9A49C",
":.	c #E0C570",
"<.	c #D9BC7A",
"[.	c #C4B37D",
"}.	c #423D2D",
"|.	c #9F8956",
"1.	c #FFE17B",
"2.	c #FFDC68",
"3.	c #DAB44D",
"4.	c #98948E",
"5.	c #A8A8A8",
"6.	c #7F7F7F",
"7.	c #C6C6C6",
"8.	c #A2A1A1",
"9.	c #A58338",
"0.	c #FFD854",
"a.	c #FFDC67",
"b.	c #E9CA6F",
"c.	c #B59C48",
"d.	c #FBD34D",
"e.	c #FFD33E",
"f.	c #FCCE35",
"g.	c #4F381C",
"h.	c #4D4D4D",
"i.	c #4C4C4C",
"j.	c #151515",
"k.	c #130E07",
"l.	c #E2B139",
"m.	c #FFD134",
"n.	c #FBCE3D",
"o.	c #BC9E3C",
"p.	c #534722",
"q.	c #7E6220",
"r.	c #896827",
"s.	c #44301A",
"t.	c #705127",
"u.	c #725620",
"            . + @ #             ",
"          $ % & * = -           ",
"          ; > , ' ) !           ",
"          ~ { ] ^ / ~           ",
"        ( _ : < [ } | (         ",
"      1 2 3 4 5 6 7 8 9 $       ",
"    0 a b c d e f g h i j k     ",
"  l m n o p q r s t u ( v w k   ",
"  0 x y z A B C D E F G H I k   ",
"  - J y K L M N O P Q R S T U   ",
"  ~ . V V W X Y Z `  ...+.@.~   ",
"    #.$.%.&.*.=.-.;.y y >.,.    ",
"  '.).!.~.{.].^./.(.y _.:.<.[.}.",
"  |.1.2.3.4.5.6.7.V 8.9.0.a.b.  ",
"  c.d.e.f.g.P h.i.j.k.l.m.n.o.p.",
"      q.r.s.          t.u.      "};
