/* XPM */
static char * clementine_16_xpm[] = {
"16 16 105 2",
"  	c None",
". 	c #FEDFC8",
"+ 	c #FC9A56",
"@ 	c #FC8F44",
"# 	c #FDCEAA",
"$ 	c #FC9147",
"% 	c #FC9751",
"& 	c #FCA158",
"* 	c #FDCBA8",
"= 	c #FD934A",
"- 	c #FD9953",
"; 	c #FD954E",
"> 	c #FCA060",
", 	c #FCA159",
"' 	c #FDCEAC",
") 	c #FD954C",
"! 	c #FD9D5B",
"~ 	c #FDA86D",
"{ 	c #FCA86E",
"] 	c #FCA35C",
"^ 	c #FDCEAB",
"/ 	c #FC9248",
"( 	c #FD9751",
"_ 	c #FDA161",
": 	c #FCB380",
"< 	c #FCA660",
"[ 	c #FDD1AE",
"} 	c #FC8C3F",
"| 	c #FD9750",
"1 	c #FDA96F",
"2 	c #FCB17C",
"3 	c #FDBC90",
"4 	c #FDA764",
"5 	c #FCBE8C",
"6 	c #FCAB72",
"7 	c #FD9B57",
"8 	c #FDA262",
"9 	c #FDAD76",
"0 	c #FCB481",
"a 	c #FDBA8C",
"b 	c #FEC197",
"c 	c #FDBE93",
"d 	c #FCA864",
"e 	c #FDCAA5",
"f 	c #FC964F",
"g 	c #FDA05F",
"h 	c #FCA163",
"i 	c #FCAC74",
"j 	c #FCB685",
"k 	c #FEB583",
"l 	c #FDB786",
"m 	c #FDAD75",
"n 	c #FCA662",
"o 	c #FDCAA2",
"p 	c #FC9E5D",
"q 	c #FD9C5B",
"r 	c #FDA162",
"s 	c #FCA96E",
"t 	c #FDAB73",
"u 	c #FCAB73",
"v 	c #FCB07B",
"w 	c #FDA569",
"x 	c #FD9E5C",
"y 	c #FCA763",
"z 	c #FDD2B3",
"A 	c #FC9146",
"B 	c #FD9F5E",
"C 	c #FDA061",
"D 	c #FDA060",
"E 	c #FDA568",
"F 	c #FD9954",
"G 	c #FC9750",
"H 	c #FD9044",
"I 	c #FC9045",
"J 	c #FCAE6F",
"K 	c #FC934B",
"L 	c #FC954F",
"M 	c #FD9D5C",
"N 	c #FD9C59",
"O 	c #FD9650",
"P 	c #FD9248",
"Q 	c #FD9045",
"R 	c #FDA864",
"S 	c #FCAA69",
"T 	c #FDCFAC",
"U 	c #FDBF94",
"V 	c #FC944C",
"W 	c #FD8E42",
"X 	c #FC934A",
"Y 	c #FC9349",
"Z 	c #FC9F5E",
"` 	c #FCAF70",
" .	c #FDC496",
"..	c #FDD1AF",
"+.	c #FDCFAE",
"@.	c #FDCCA9",
"#.	c #FDCDAA",
"$.	c #FDCFAD",
"%.	c #FDCFAB",
"&.	c #FCA863",
"*.	c #FCA560",
"=.	c #FCA35D",
"-.	c #FCA35B",
";.	c #FBA159",
">.	c #FBA058",
"                                ",
"  . + @                         ",
"  # $ % %                       ",
"& * = - ; >                     ",
", ' ) ; ! ~ {                   ",
"] ^ / ( _ { :                   ",
"< [ } | _ 1 2 3                 ",
"4 5 6 7 8 9 0 a b c             ",
"  d e f g h i j k l 2 m         ",
"  n o p q r s t u v w > x %     ",
"  y d z A B C D E w B x F G H I ",
"    d J z K 7 L M N N O | P F Q ",
"      R S T U p @ V = W X Y Z   ",
"        y < `  ...+.@.#.$.%.    ",
"            &.y *.=.-.;.>.      ",
"                                "};
