/* XPM */
static char * tangogps_xpm[] = {
"32 32 325 2",
"  	c None",
". 	c #000000",
"+ 	c #006409",
"@ 	c #002203",
"# 	c #007F08",
"$ 	c #002207",
"% 	c #00316F",
"& 	c #009600",
"* 	c #009E00",
"= 	c #002300",
"- 	c #005200",
"; 	c #009D00",
"> 	c #001902",
", 	c #006204",
"' 	c #0004C8",
") 	c #0208E0",
"! 	c #009500",
"~ 	c #007E18",
"{ 	c #042E7F",
"] 	c #01051B",
"^ 	c #082CE3",
"/ 	c #0722EE",
"( 	c #000001",
"_ 	c #009908",
": 	c #008F05",
"< 	c #0108D9",
"[ 	c #0414E2",
"} 	c #026051",
"| 	c #01792E",
"1 	c #0B2DF8",
"2 	c #030F3F",
"3 	c #082EA1",
"4 	c #0D41E5",
"5 	c #0B34C4",
"6 	c #010A21",
"7 	c #008E16",
"8 	c #008122",
"9 	c #009313",
"0 	c #001100",
"a 	c #0109DD",
"b 	c #0418DE",
"c 	c #0725E5",
"d 	c #063FA3",
"e 	c #046962",
"f 	c #0D46DF",
"g 	c #000207",
"h 	c #0F60D0",
"i 	c #08707B",
"j 	c #036632",
"k 	c #041441",
"l 	c #0D3BF1",
"m 	c #027C34",
"n 	c #034C78",
"o 	c #005800",
"p 	c #000003",
"q 	c #0107D9",
"r 	c #0418DD",
"s 	c #0727E3",
"t 	c #064595",
"u 	c #00A300",
"v 	c #00A200",
"w 	c #05574E",
"x 	c #072656",
"y 	c #0F7BA5",
"z 	c #0A7F72",
"A 	c #008700",
"B 	c #041239",
"C 	c #086C85",
"D 	c #0E41F9",
"E 	c #065487",
"F 	c #007F1E",
"G 	c #000300",
"H 	c #0002C7",
"I 	c #0313DD",
"J 	c #0724DF",
"K 	c #0A35E2",
"L 	c #0D43EA",
"M 	c #096591",
"N 	c #00A400",
"O 	c #005C00",
"P 	c #055235",
"Q 	c #05853A",
"R 	c #0B8873",
"S 	c #1679D5",
"T 	c #010511",
"U 	c #1070C1",
"V 	c #1156EA",
"W 	c #0A52A4",
"X 	c #06567D",
"Y 	c #006C00",
"Z 	c #010ADF",
"` 	c #051CDF",
" .	c #092EE2",
"..	c #0C40E4",
"+.	c #1050E8",
"@.	c #087C67",
"#.	c #00A800",
"$.	c #004800",
"%.	c #007C00",
"&.	c #1699B2",
"*.	c #0B955A",
"=.	c #129C99",
"-.	c #000507",
";.	c #1466D3",
">.	c #1364E9",
",.	c #1054E9",
"'.	c #0D42EB",
").	c #037152",
"!.	c #00441D",
"~.	c #0001C2",
"{.	c #0311DD",
"].	c #0724E0",
"^.	c #0A36E3",
"/.	c #0E49E5",
"(.	c #135AEF",
"_.	c #058D3D",
":.	c #00AA00",
"<.	c #004500",
"[.	c #097847",
"}.	c #25ACFF",
"|.	c #00AA07",
"1.	c #0CA75E",
"2.	c #0B4156",
"3.	c #0B386B",
"4.	c #1671ED",
"5.	c #135EE9",
"6.	c #0F4CE6",
"7.	c #0A42C6",
"8.	c #017633",
"9.	c #007900",
"0.	c #000900",
"a.	c #0003CA",
"b.	c #0415DE",
"c.	c #0829E1",
"d.	c #0C3BE4",
"e.	c #104FE7",
"f.	c #1260DC",
"g.	c #00A103",
"h.	c #00AB00",
"i.	c #005000",
"j.	c #007D00",
"k.	c #09B140",
"l.	c #01B408",
"m.	c #00B900",
"n.	c #048F1F",
"o.	c #1671DE",
"p.	c #1466EA",
"q.	c #1053E7",
"r.	c #0D40E4",
"s.	c #054C92",
"t.	c #009900",
"u.	c #008506",
"v.	c #0004CB",
"w.	c #0518DE",
"x.	c #092BE1",
"y.	c #0D3FE4",
"z.	c #1152E8",
"A.	c #097B75",
"B.	c #00A900",
"C.	c #006900",
"D.	c #005F00",
"E.	c #00BC00",
"F.	c #00BE00",
"G.	c #01AF0B",
"H.	c #14A790",
"I.	c #0C3F58",
"J.	c #041932",
"K.	c #166EF4",
"L.	c #1156E8",
"M.	c #0E43E5",
"N.	c #064C95",
"O.	c #008208",
"P.	c #0005CB",
"Q.	c #092CE1",
"R.	c #1153EB",
"S.	c #078454",
"T.	c #00AD00",
"U.	c #009300",
"V.	c #002C00",
"W.	c #00BF00",
"X.	c #00BA00",
"Y.	c #1AB5A2",
"Z.	c #25B7FD",
"`.	c #21A5F5",
" +	c #00050A",
".+	c #051E45",
"++	c #125BF3",
"@+	c #0831CE",
"#+	c #009A00",
"$+	c #008206",
"%+	c #0004CA",
"&+	c #0416DE",
"*+	c #0C3DE4",
"=+	c #0F50E7",
"-+	c #0C7096",
";+	c #019F0A",
">+	c #000800",
",+	c #00B200",
"'+	c #05AD25",
")+	c #28C0FF",
"!+	c #23AFF6",
"~+	c #1F9DF2",
"{+	c #197FDA",
"]+	c #000205",
"^+	c #020F2B",
"/+	c #0B3CD7",
"(+	c #092CE7",
"_+	c #014F6D",
":+	c #003568",
"<+	c #0002C4",
"[+	c #0312DD",
"}+	c #0B37E3",
"|+	c #0E4AE6",
"1+	c #125BE3",
"2+	c #057F3F",
"3+	c #00AF00",
"4+	c #014B10",
"5+	c #014D0E",
"6+	c #23AFF5",
"7+	c #20ADF7",
"8+	c #15A8FF",
"9+	c #1896F7",
"0+	c #1A82EE",
"a+	c #1464D0",
"b+	c #01060E",
"c+	c #03146E",
"d+	c #0413DC",
"e+	c #0104CD",
"f+	c #020BDF",
"g+	c #051DDF",
"h+	c #092FE1",
"i+	c #1052E7",
"j+	c #125DE1",
"k+	c #00AE00",
"l+	c #069540",
"m+	c #1D88F8",
"n+	c #1997EC",
"o+	c #844A75",
"p+	c #EC0509",
"q+	c #BC213B",
"r+	c #1674EA",
"s+	c #1157EA",
"t+	c #041751",
"u+	c #000009",
"v+	c #0004C7",
"w+	c #0414DD",
"x+	c #0726E0",
"y+	c #0A36E2",
"z+	c #0D46E5",
"A+	c #1055EA",
"B+	c #0F66BB",
"C+	c #029321",
"D+	c #08934F",
"E+	c #054636",
"F+	c #1B1217",
"G+	c #FF0000",
"H+	c #7C3378",
"I+	c #1158E8",
"J+	c #0B3BE8",
"K+	c #0623C4",
"L+	c #01074D",
"M+	c #0109D9",
"N+	c #041ADF",
"O+	c #0B38E2",
"P+	c #135CF4",
"Q+	c #1264D0",
"R+	c #049138",
"S+	c #00190A",
"T+	c #040000",
"U+	c #FE0000",
"V+	c #5533A6",
"W+	c #0E45F0",
"X+	c #0B3BE3",
"Y+	c #082AE5",
"Z+	c #051CE0",
"`+	c #020CD9",
" @	c #020CDD",
".@	c #051BDE",
"+@	c #0728E0",
"@@	c #0A35E3",
"#@	c #1057DB",
"$@	c #09628C",
"%@	c #010213",
"&@	c #230000",
"*@	c #8D0000",
"=@	c #4F6700",
"-@	c #009700",
";@	c #008812",
">@	c #044F86",
",@	c #016A42",
"'@	c #011BB5",
")@	c #010AD8",
"!@	c #0723DF",
"~@	c #092DE1",
"{@	c #0B4FBC",
"]@	c #008C10",
"^@	c #000D00",
"/@	c #000F00",
"(@	c #00682B",
"_@	c #0106C3",
":@	c #0310E2",
"<@	c #051ADE",
"[@	c #0622E0",
"}@	c #0728E1",
"|@	c #0736C3",
"1@	c #00841E",
"2@	c #009B00",
"3@	c #002900",
"4@	c #006406",
"5@	c #00004F",
"6@	c #0006A9",
"7@	c #020CDA",
"8@	c #0312E4",
"9@	c #0416E2",
"0@	c #0519E2",
"a@	c #0514E8",
"b@	c #006A3F",
"c@	c #00A100",
"d@	c #005C06",
"e@	c #000028",
"f@	c #00014E",
"g@	c #000257",
"h@	c #000357",
"i@	c #00152C",
"j@	c #001309",
"                                                                ",
"                                                                ",
"                                                        . . .   ",
"                                                . .   . . . . . ",
"                                          .     . .   . . . . . ",
"                                        . .   . .       . . .   ",
"                                . .   . .     . .               ",
"                              . .     . .       . .             ",
"                    + . @ # $ . .     . .       . .             ",
"              % & * = . - ; > . ,     . .         . . .         ",
"          ' ) ! ~ { . ] ^ / . ( _ ; : . .           . . . .     ",
"        < [ } | 1 2 . 3 4 5 . 6 7 8 9 0 .               .       ",
"      a b c d e f . g h i j . k l m n o . p                     ",
"    q r s t u v w . x y z A . B C D E F G .                     ",
"  H I J K L M N O . P Q R S . T U V W X Y . .                   ",
"  Z `  ...+.@.#.$.. %.&.*.=.-.. ;.>.,.'.).!.. . .               ",
"~.{.].^./.(._.:.<.. [.}.|.1.2.. 3.4.5.6.7.8.9.0.. . . .         ",
"a.b.c.d.e.f.g.h.i.. j.k.l.m.n.. . o.p.q.r.s.t.u.  . . .         ",
"v.w.x.y.z.A.B.h.C.. D.E.F.G.H.I.. J.K.L.M.N.t.O.                ",
"P.w.Q.y.R.S.#.T.U.. V.W.X.Y.Z.`. +. .+++M.@+#+$+                ",
"%+&+c.*+=+-+;+h.m.>+. ,+'+)+!+~+{+]+. ^+/+(+_+:+                ",
"<+[+].}+|+1+2+h.3+4+. 5+6+7+8+9+0+a+b+. . c+d+e+                ",
"  f+g+h+4 i+j+k+l+m+. . n+o+p+q+r+p.s+t+. . . u+.               ",
"  v+w+x+y+z+A+B+C+D+E+. F+G+G+G+H+I+/.J+K+L+. . . .             ",
"    M+N+c.O+z+q.P+Q+R+S+T+G+U+G+V+W+X+Y+Z+`+                    ",
"       @.@+@@@..|+i+#@$@%@&@*@=@-@;@>@,@'@                      ",
"        )@b !@~@^.*+4 {@]@^@. /@j.t.! (@                        ",
"          _@:@<@[@}@Q.|@1@2@3@. . V.4@                          ",
"            5@6@7@8@9@0@a@b@c@d@. . . . .                       ",
"              . . e@f@g@h@i@j@( . . . . . . .                   ",
"                  . . . . .               .                     ",
"                                                                "};
