/* XPM */
static char *blender2[] = {
/* columns rows colors chars-per-pixel */
"32 26 149 2",
"   c #001900190019",
".  c #0C5B0C680C5B",
"X  c #142014311420",
"o  c #1BAB1BC81BAA",
"O  c #22B322DA22B3",
"+  c #2E902EBF2E8D",
"@  c #353935713538",
"#  c #3CFD3D563D37",
"$  c #00002DCF7C89",
"%  c #0000303E7B6C",
"&  c #45F6463C45F0",
"*  c #4AF54B3F4AF4",
"=  c #5036508B5037",
"-  c #52A852F852A8",
";  c #5B4E5BA65B50",
":  c #6512659B65C1",
">  c #6D626DA06D71",
",  c #774177BB7756",
"<  c #7A4D7AC87A5A",
"1  c #00002F058169",
"2  c #00613157831F",
"3  c #04DC391F8767",
"4  c #05BA39608897",
"5  c #0E7943CC8E9F",
"6  c #26005B84A09B",
"7  c #44BE740DB1DF",
"8  c #417679B9B212",
"9  c #4B9A7B2EB59C",
"0  c #52128494BBBA",
"q  c #59168DD4BEDF",
"w  c #804480AB8096",
"e  c #640E941DC26A",
"r  c #7368A227CC2A",
"t  c #7E0EA5ADCFC8",
"y  c #7D3BA997CF8A",
"u  c #EFA077C6013C",
"i  c #EFD57A33051B",
"p  c #EEC17CCC0BAA",
"a  c #EF877FAF1068",
"s  c #F1F276790090",
"d  c #F5C87C7F042F",
"f  c #F3EC7F030AC5",
"g  c #FAA17E07034A",
"h  c #EE8B82791700",
"j  c #F68B81CD0D40",
"k  c #FC3181820726",
"l  c #FB3C82A40AF7",
"z  c #F53383FB1356",
"x  c #F56C8A2F1E55",
"c  c #FAFA86D9137D",
"v  c #FC7B88F315D5",
"b  c #FCA58CD71D08",
"n  c #F07D88B72171",
"m  c #F0778F6A2E53",
"M  c #F4858BB022CD",
"N  c #F31B8E2D28A5",
"B  c #FC2A8F24215A",
"V  c #F27C90952E29",
"C  c #FCB5961E2F3C",
"Z  c #F76895F134B8",
"A  c #F47698103BCA",
"S  c #F5DA9A703E97",
"D  c #FCAE981C31D7",
"F  c #FC5F9C0A3B5C",
"G  c #F3439E454800",
"H  c #F3489EDF4AE2",
"J  c #FB52A03F44DC",
"K  c #F6F0A2B64C97",
"L  c #FC93A24346B6",
"P  c #FA05A3D74C40",
"I  c #F85CA61552A9",
"U  c #F84CAC135E48",
"Y  c #FB19A8575392",
"T  c #FD04AACB571C",
"R  c #FC93ADC55C8C",
"E  c #F53FAD39649F",
"W  c #F605B07D6A10",
"Q  c #F55CB2286E8F",
"!  c #FDF7B25E63D4",
"~  c #FC83B5526B6A",
"^  c #F4B1B7A07899",
"/  c #F796BB808022",
"(  c #FE03BB6474AD",
")  c #FD2BBD867BF5",
"_  c #FF82C12E7F21",
"`  c #839C84278405",
"'  c #8DCA8E678DE9",
"]  c #944C954F9567",
"[  c #A02FA0C9A05C",
"{  c #A783A7F2A82A",
"}  c #A899AA80AB11",
"|  c #AAEBAB8EAB4D",
" . c #B635B707B715",
".. c #B87CB974B9AD",
"X. c #BA35BB70BB51",
"o. c #8AB6AC9CCF8E",
"O. c #85F8AB08D26F",
"+. c #A14FC290DE1B",
"@. c #A76FC821E139",
"#. c #B37FD04EE5C6",
"$. c #BA64D536E858",
"%. c #F766BE0A851F",
"&. c #FDB8C6198BE4",
"*. c #FEE7C9E18DC7",
"=. c #F7F7CAE49D20",
"-. c #FDA8C84C9190",
";. c #FE64CAD994E5",
":. c #FD2FD00B9EC7",
">. c #FEC6D505A4B3",
",. c #FE58D5D0AB2F",
"<. c #FEBAD967AFB0",
"1. c #FDB5DA2CB4C6",
"2. c #FE27DECCBDE8",
"3. c #C38BC59DC626",
"4. c #CBD9CD1DCD11",
"5. c #D014D18CD1B5",
"6. c #D398D5E8D6BF",
"7. c #D64BD88FD9C6",
"8. c #D707D940D9DB",
"9. c #DC87DD11DD2A",
"0. c #C26EDBCFEF6F",
"q. c #C508DE6BF1FD",
"w. c #E09CEEB1F92F",
"e. c #FD61E0D0C296",
"r. c #FD9DE286C4FD",
"t. c #FE96E64ECBE6",
"y. c #FF72EA33D069",
"u. c #FF8EECC1D6EA",
"i. c #FF71EF26DC62",
"p. c #FFF8F1F3DF02",
"a. c #E666E71EE706",
"s. c #E8E5E9E5E9D8",
"d. c #ED77EE94EEB1",
"f. c #E73DF4EBFD2F",
"g. c #EFCFF12FF202",
"h. c #E9EDF60DFB90",
"j. c #EFA7FA82FFFF",
"k. c #FC70F0B6E178",
"l. c #FF4AF448E40A",
"z. c #FFCBF846ED31",
"x. c #FFFFF929E63A",
"c. c #FFFFF934EED2",
"v. c #F54DF657F648",
"b. c #F7B1F8C7F981",
"n. c #F612FCD9FE41",
"m. c #FAE7F88FF3B6",
"M. c #FFBBFC80F567",
"N. c #FE98FF4DFEAA",
"B. c None",
/* pixels */
"B.B.B.B.B.B.B.B.B.B.B.B.B.B.. * ` ; . B.B.B.B.B.B.B.B.B.B.B.B.B.",
"B.B.B.B.B.B.B.B.B.B.B.B.B.X { d.N.v. .=   B.B.B.B.B.B.B.B.B.B.B.",
"B.B.B.B.B.B.B.B.B.B.B.B.B.& N.r.~ -.M.b.< . B.B.B.B.B.B.B.B.B.B.",
"B.B.B.B.B.B.B.B.B.B.B.B.B.# m.U s d U u.b...@ B.B.B.B.B.B.B.B.B.",
"B.B.B.B.B.B.B.B.B.B.B.B.B.# N.r.A u s Z 2.N.8.& . B.B.B.B.B.B.B.",
"B.B.B.B.B.X ` ] ] ] ] ] ] | N.N.k.W f s M ;.M.b.] . B.B.B.B.B.B.",
"B.B.B.B.. } N.M.x.x.l.l.l.l.k.k.k.u.E f d c ! i.N.{ &   B.B.B.B.",
"B.B.B.B.- v.p.R B B x x M N M N N N x f f g g F 1.N.a.= B.B.B.B.",
"B.B.B.B.] N.>.l g s s u i p p f f d d k k k g g b *.M.s.-   B.B.",
"B.B.B.B.# d.c.;.( / / %.E h f f f D ! ) _ ! D l g l ~ c.d.@ B.B.",
"B.B.B.B.. *  .9.N.N.N.r.H z f c ) p.N.j.j.N.k.) v g g ( M.{ X B.",
"B.B.B.B.B.B.X > N.M.=.m f f z &.M.f.y 9 7 e q.N.*.l g l ,.N.; B.",
"B.B.B.B.B.X ] b.l.Q h p a a P z.h.0 2 $ $ $ 6 q.c.T g g I M.:   ",
"B.B.B.  * | N.e.G p p p a a *.N.+.4 $ $ % $ $ q N.*.g s M u.4.. ",
"B.B.  ; d.M.;.M u i p a f c <.N.o.$ $ % % % $ 8 n.,.l s p r.6.. ",
"B.o | v.i.~ f u u m ^ n p f &.N.#.5 $ $ $ $ 1 r N.*.l u u 2.6.X ",
"  , N.t.F s u s A r.l.N f d J z.n.y 5 $ $ 4 9 w.M.T g u z y.6.. ",
"X 5.p.C g s g U l.N.m.K d f z *.M.N.$.O.t @.h.N.*.c g s J z.`   ",
". 6.r.k g c &.z.5.` v.:.f f g b ) i.N.N.N.N.p./ v g g d &.N.; B.",
". 4.M.*.! <.M.5.+ . X.z.T d g f g D ~ *.*.~ C l g f d P l.6.@ B.",
"  & 9.N.N.N.4.+ B.B.= g.u.J g g f g s g k d d k g g F u.N.= B.B.",
"B.B.O w { > o B.B.B.  ; d.u.R v d d d f d d d u f Y u.b.' . B.B.",
"B.B.B.B.B.B.B.B.B.B.B.  ; d.M.>.I N f s i p M P >.M.N.' . B.B.B.",
"B.B.B.B.B.B.B.B.B.B.B.B.B.; 5.N.M.u.e.1.1.2.u.M.b...* . B.B.B.B.",
"B.B.B.B.B.B.B.B.B.B.B.B.B.B.o ; : #.7.7.7.7.{ : * . B.B.B.B.B.B.",
"B.B.B.B.B.B.B.B.B.B.B.B.B.B.B.B.B.. X X X . . B.B.B.B.B.B.B.B.B."
};
