/* XPM */
static char *balsa[] = {
/* columns rows colors chars-per-pixel */
"32 32 114 2",
"   c #000000",
".  c #0C0505",
"X  c #0B0B0B",
"o  c #110707",
"O  c #131212",
"+  c #1A1616",
"@  c #1B1B1B",
"#  c #201D1D",
"$  c #2E1515",
"%  c #291B1B",
"&  c #3C1E1E",
"*  c #262626",
"=  c #2A2B2B",
"-  c #2E302F",
";  c #2E3030",
":  c #343535",
">  c #3E3534",
",  c #3E3E3E",
"<  c #3F4040",
"1  c #4C1D1D",
"2  c #4E2222",
"3  c #4A3232",
"4  c #562626",
"5  c #593737",
"6  c #6D3232",
"7  c #6F3E3E",
"8  c #7B3C3C",
"9  c #4A403F",
"0  c #434544",
"q  c #4B4C4C",
"w  c #4F5252",
"e  c #535554",
"r  c #5D5F5E",
"t  c #7F4040",
"y  c #7A4848",
"u  c #705B5B",
"i  c #7B5757",
"p  c #636463",
"a  c #666867",
"s  c #6B6D6D",
"d  c #727474",
"f  c #767877",
"g  c #777A79",
"h  c #7B7777",
"j  c #7B7D7C",
"k  c #7D807F",
"l  c #7E8180",
"z  c #843D3D",
"x  c #834444",
"c  c #8F4545",
"v  c #9C5555",
"b  c #8B6363",
"n  c #807474",
"m  c #857E7D",
"M  c #887B7A",
"N  c #9B6464",
"B  c #9A7B7A",
"V  c #A35656",
"C  c #A75C5C",
"Z  c #A36060",
"A  c #A36C6C",
"S  c #AB6363",
"D  c #AB7B7A",
"F  c #B16C6C",
"G  c #B07272",
"H  c #BA7B7B",
"J  c #94807F",
"K  c #828584",
"L  c #858887",
"P  c #868888",
"I  c #8B8584",
"U  c #898B8B",
"Y  c #8D908F",
"T  c #8E9190",
"R  c #939595",
"E  c #979998",
"W  c #9B9C9C",
"Q  c #9DA09F",
"!  c #9EA0A0",
"~  c #A68584",
"^  c #A68988",
"/  c #BF8B8B",
"(  c #BC9595",
")  c #A2A4A3",
"_  c #A5A8A7",
"`  c #A7A9A8",
"'  c #A9A4A4",
"]  c #AAACAC",
"[  c #AEB0AF",
"{  c #AFB1B0",
"}  c #B2B4B4",
"|  c #B6B8B7",
" . c #B7B9B9",
".. c #BABCBB",
"X. c #BFC0C0",
"o. c #C08686",
"O. c #C38C8C",
"+. c #C89898",
"@. c #C3C4C4",
"#. c #C7C9C9",
"$. c #CACCCB",
"%. c #CED0CF",
"&. c #CFD0D0",
"*. c #D3D4D4",
"=. c #D7D8D8",
"-. c #DADBDB",
";. c #DFE0E0",
":. c #E3E3E3",
">. c #EBECEC",
",. c #F2F3F2",
"<. c #F7F8F7",
"1. c #F7F8F8",
"2. c #FBFCFC",
"3. c None",
/* pixels */
"3.3.3.3.3.3.3.3.3.3.3.3.3.3.3.3.3.3.3.3.3.3.3.3.3.3.3.3.3.3.3.3.",
"3.3.3.3.3.3.3.3.3.3.3.3.3.3.3.3.3.3.3.3.3.3.3.3.3.3.3.3.3.3.3.3.",
"3.3.3.3.3.3.3.3.3.3.3.3.3.3.3.3.3.3.3.3.3.      3.3.3.3.3.3.3.3.",
"3.3.3.3.3.3.3.3.3.3.3.3.3.3.3.3.3.3.3.              3.3.3.3.3.3.",
"3.3.3.3.3.3.3.3.                                        3.3.3.3.",
"3.3.3.3.                                                  3.3.3.",
"3.3.                X , , 0 0 0 0 g } ] | } ] P             3.3.",
"3.      E ) W W W W ` *.*.*.*.$.#.#.@.....} W R *           3.3.",
"3.    ` 2.1.,.,.>.:.;.-.=.*.$.$.@.@.....} ) K R a .             ",
"3.    R 1.,.>.:.:.;.-.-.*.&.$.@.X... .} ] P K U P * O , O       ",
"3.    . >.>.:.=.#.@.$.$.$.#.@..... .} ` K d l U U a u ' #       ",
"3.      K >.;.=.#...[ } } .... .} } ] E p a l P U I G b X       ",
"3.    X q ;.;.=.$.#...} ) E K U E ! ! s r a d j I D v &         ",
"3.      @ ] -.=.*.$.@...] ! k g d d d p a s s d B G y @         ",
"3.    .   l =.&.$.#.@...} ! m j g d s s d d d h H v 3 ;         ",
"3.      X * &.&.#.@.X...| R j j j j f f g f h D S 7 : 0 X       ",
"3.        .  .#.X.X...| { U l l l j j j j f ~ H x > < w ;       ",
"3.          p @.X...| { ` U l l l j g j f M / C 5 : 0 = X       ",
"3.          = _ ..| { [ ! P L l K j j j m ( Z 8 : = X           ",
"3.3.      X   f | { [ ` E L l L K l l l ^ / c 3 O         .     ",
"3.3.        X 0 { [ _ ! T l P L K l l B / V 4 .     .           ",
"3.3.            ! ` _ ! U l l L l l m / +.N o           X       ",
"3.3.          X r ! ! E l l l l l j ~ / t $                     ",
"3.3.3.          ; E W T l l l l g p / v 1                       ",
"3.3.3.3.          a E U l l g s - i Z 4                         ",
"3.3.3.3.          q T L l j q @ % A 6 o                         ",
"3.3.3.3.            L l p =     7 8 .                       3.3.",
"3.3.3.3.            a w O       t $                     3.3.3.3.",
"3.3.3.3.3.          . X     .                       3.3.3.3.3.3.",
"3.3.3.3.3.              X     .                   3.3.3.3.3.3.3.",
"3.3.3.3.3.3.          X                       3.3.3.3.3.3.3.3.3.",
"3.3.3.3.3.3.                                3.3.3.3.3.3.3.3.3.3."
};
