/* XPM */
static char * obkey_xpm[] = {
"48 48 64 1",
" 	c None",
".	c #00528B",
"+	c #0060BA",
"@	c #407CA3",
"#	c #005BAA",
"$	c #005491",
"%	c #005EB2",
"&	c #337096",
"*	c #8AC8EF",
"=	c #628291",
"-	c #0059A3",
";	c #005598",
">	c #5E93B4",
",	c #8FB2C8",
"'	c #5695C8",
")	c #0265C6",
"!	c #3989CC",
"~	c #BFD5E7",
"{	c #30596F",
"]	c #7ABEEE",
"^	c #004C7B",
"/	c #004E81",
"(	c #003B60",
"_	c #AFC6D5",
":	c #CFDEE9",
"<	c #507385",
"[	c #569FD5",
"}	c #005085",
"|	c #014168",
"1	c #BFD2DD",
"2	c #79B6DB",
"3	c #7FAAC9",
"4	c #004470",
"5	c #3D80B2",
"6	c #EFF3F7",
"7	c #7FA5BB",
"8	c #6F9CB9",
"9	c #216591",
"0	c #124A69",
"a	c #DFE8EF",
"b	c #216CA5",
"c	c #00579D",
"d	c #7FACD2",
"e	c #0F5B8D",
"f	c #0F64AA",
"g	c #004877",
"h	c #1C78CC",
"i	c #125780",
"j	c #61ABE4",
"k	c #9FBED4",
"l	c #0F5985",
"m	c #004678",
"n	c #40667A",
"o	c #C0CDD3",
"p	c #A0B3BD",
"q	c #0E3F58",
"r	c #1E5069",
"s	c #D0D9DE",
"t	c #8099A6",
"u	c #E0E6E9",
"v	c #90A6B2",
"w	c #0F5E98",
"x	c #00334D",
"y	c #FFFFFF",
"                                                ",
"                     u=nn<o                     ",
"                    _qxxxxxv                    ",
"                   pxxx@&xxx=                   ",
"                  pxxx[]!#(xx=                  ",
"                 txxq2[+%%#(xx=  vnxxx{=        ",
"                =xx|2!++%%%#|xx{{xxxxxxxr       ",
"               =xxr*!++++%%%#4xxxx0&@&|xx<      ",
"              <xxr*h+++++%%%%#4xx0*['!;4xx      ",
"             {xx9*h++++++%%%###mx92ccc;/xxo     ",
"            {xx&*h)++++++%%%####/b[ccc;/xxo     ",
"          s{xx&])))+++++%%%%####---ccc;/xxo     ",
"         sqxx>])))++++++%%%%###----ccc;/xxo     ",
"        sqxx>j))++++++++%%%%###----cc;;/xxo     ",
"       pqxx>j++++++++++%%%%####----cc;;/xxo     ",
"      pxxq2j++++++++++%%%%%####---ccc;;/xxo     ",
"     pxxq2[++++++++++%%%%%####----cc;;;.xx=     ",
"    =xx02!+++-..-+++%%%%%#####c//.cc;;;$(xx<    ",
"   =xxr*!%++$&ayy!%%%%%%%####-;7yy_f;;;$.|xx{   ",
"  =xxr*!%%%%l6yyy!%%%%%#####--c3yyy~;;$$$.|xx{  ",
" =xxr*!%%%%#>yy'f-;$$$$$$$$c----bkyy;;$$$..(xx{ ",
"sxxi*!##%%%-7y~%%$,1111111117b-cc9yy5$$$$...4xxv",
"txx*!#####%-7y~%%$1yyyyyyyyyyy'cc/yy5$$$....-(xn",
"pxx5#######c7y~##$1yyyyyyyyyyyy5c/yy5$$..%)))(x=",
"uqxxxx^####c7y~##$1yyyddddkyyyy_;/yy5$$..^xxxxxo",
" _qxxxm-###;ky~##$1yyy----->yyyy;/yy5$...gxxxxp ",
"   o{xm----.1yd#-$1yyy----c}yyyy;.6y8....gxxou  ",
"    nxm--c.&yy'--.1yyy--cc;iyyyy;$_y1....gxx    ",
"    nxm--/,6y:---.1yyy.../i_yyy:$$&6y:>.}gxx    ",
"    nxmcc/yy:f---.1yyy1116yyyyy3$$}@6y1}}gxx    ",
"    nx4ccc:yykccc.1yyyyyyyyyyy:$$.i:y6,}}gxx    ",
"    nx4cccc>yy5cc.1yyyyyyyyyy,w$$/kyae}}/gxx    ",
"    nx4;;;;$:y3;;.1yyy333355w$$../ay8}}//gxx    ",
"    nx4;;;;$_y_;;.1yyy;$$$$$$$...^yy@}}//gxx    ",
"    nx4$;;;.7y~;;}1yyy$$$$$$.....^yy@////4xx    ",
"    nx4$$$$.7y~$$}1yyy$$$$.......^yy@////4xx    ",
"    nx4$$$$.7y~$$}1yyy$$.......}}^yy@//^^4xx    ",
"    nx4.$$$.7y~$$}1yyy........}}}iyy@/^^^4xx    ",
"    nx|.....8y6e..1yyy......}}//^8yyl^^^^4xx    ",
"    nx|.....9yyy1&.......}}}}}/>ayy1^^^^/gxx    ",
"    nx|......>yyy@....}}}}}}///7yy6&^^^^-;xx    ",
"    nx|}}}}}}.9@@e}}}}}}}}/////9@@^^^^^^%;xx    ",
"    nx|}}}}}}}}}}}}}}}/////////^^^^^^^^c)/xx    ",
"    =xx+)%########%+++++++++++++++++++))+(xr    ",
"    oxx($;;;;;;;;;;;;;;;;;;;;;;;;;;;////(xxt    ",
"     =xxxxxxxxxxxxxxxxxxxxxxxxxxxxxxxxxxxx{     ",
"      trxxxxxxxxxxxxxxxxxxxxxxxxxxxxxxxxq=      ",
"                                                "};
