/* XPM */
static char * clementine_xpm[] = {
"32 32 228 2",
"  	c None",
". 	c #FDB37F",
"+ 	c #FD9044",
"@ 	c #FC9045",
"# 	c #FD9146",
"$ 	c #FECDA5",
"% 	c #FEDAC0",
"& 	c #FC9C59",
"* 	c #FD9349",
"= 	c #FD9145",
"- 	c #FD9045",
"; 	c #FDCFAA",
"> 	c #FDC7A0",
", 	c #FC9148",
"' 	c #FD9B58",
") 	c #FD9C5A",
"! 	c #FD9953",
"~ 	c #FD944C",
"{ 	c #FC9146",
"] 	c #FCA55F",
"^ 	c #FED7B9",
"/ 	c #FDBA8B",
"( 	c #FD944B",
"_ 	c #FD9248",
": 	c #FD954D",
"< 	c #FD9A54",
"[ 	c #FD9D5B",
"} 	c #FD964F",
"| 	c #FCA55E",
"1 	c #FEDCC2",
"2 	c #FDB584",
"3 	c #FD9954",
"4 	c #FD9A55",
"5 	c #FD9B56",
"6 	c #FD9046",
"7 	c #FD9650",
"8 	c #FDA263",
"9 	c #FD9A57",
"0 	c #FDA763",
"a 	c #FCA662",
"b 	c #FEDDC4",
"c 	c #FDAC74",
"d 	c #FD9751",
"e 	c #FD9D5A",
"f 	c #FD9C59",
"g 	c #FDA161",
"h 	c #FCA160",
"i 	c #FDA864",
"j 	c #FCA45E",
"k 	c #FDB481",
"l 	c #FD934A",
"m 	c #FDA365",
"n 	c #FDA060",
"o 	c #FDA96F",
"p 	c #FCA264",
"q 	c #FCA764",
"r 	c #FEDBC1",
"s 	c #FDB685",
"t 	c #FD9A56",
"u 	c #FDA96E",
"v 	c #FDAB71",
"w 	c #FDAE78",
"x 	c #FDAB73",
"y 	c #FED8BC",
"z 	c #FDB684",
"A 	c #FD9249",
"B 	c #FD934B",
"C 	c #FD9952",
"D 	c #FD9F5F",
"E 	c #FDA669",
"F 	c #FDA262",
"G 	c #FDAA71",
"H 	c #FDB27E",
"I 	c #FCB583",
"J 	c #FEB988",
"K 	c #FCA864",
"L 	c #FCA661",
"M 	c #FDD0AB",
"N 	c #FDC59E",
"O 	c #FC9954",
"P 	c #FDA364",
"Q 	c #FDAE77",
"R 	c #FDB07B",
"S 	c #FDB583",
"T 	c #FEBB8D",
"U 	c #FDC496",
"V 	c #FED4B7",
"W 	c #FC8F43",
"X 	c #FD954C",
"Y 	c #FD9750",
"Z 	c #FD9E5C",
"` 	c #FDA466",
" .	c #FDAC75",
"..	c #FCB37F",
"+.	c #FEB685",
"@.	c #FDBC8F",
"#.	c #FDC096",
"$.	c #FCA863",
"%.	c #FDB982",
"&.	c #FEDABF",
"*.	c #FD9955",
"=.	c #FD9F5D",
"-.	c #FDA86C",
";.	c #FCAD75",
">.	c #FEB27E",
",.	c #FEB787",
"'.	c #FEC096",
").	c #FDB888",
"!.	c #FD9D59",
"~.	c #FD9853",
"{.	c #FD9B57",
"].	c #FDAF79",
"^.	c #FCB481",
"/.	c #FEB98A",
"(.	c #FEBC8E",
"_.	c #FEC095",
":.	c #FEC39A",
"<.	c #FEC29A",
"[.	c #FEC197",
"}.	c #FDCDA6",
"|.	c #FECDAC",
"1.	c #FC8E41",
"2.	c #FD9B55",
"3.	c #FDA76C",
"4.	c #FCB07B",
"5.	c #FDB582",
"6.	c #FEBA8B",
"7.	c #FEBF94",
"8.	c #FEBE91",
"9.	c #FEBE93",
"0.	c #FEBC8F",
"a.	c #FCA763",
"b.	c #FDA76B",
"c.	c #FDA467",
"d.	c #FCAD77",
"e.	c #FEB583",
"f.	c #FDAF78",
"g.	c #FEDBBF",
"h.	c #FDC197",
"i.	c #FC9852",
"j.	c #FD9C57",
"k.	c #FD9E5D",
"l.	c #FDA366",
"m.	c #FDAC73",
"n.	c #FDB17C",
"o.	c #FCB380",
"p.	c #FDB787",
"q.	c #FEB582",
"r.	c #FEB27D",
"s.	c #FDAA70",
"t.	c #FDB17D",
"u.	c #FDAD75",
"v.	c #FCA263",
"w.	c #FDA863",
"x.	c #FDC08F",
"y.	c #FED9BF",
"z.	c #FDA162",
"A.	c #FDAB72",
"B.	c #FCAF78",
"C.	c #FCAE77",
"D.	c #FCB27E",
"E.	c #FDA66A",
"F.	c #FDA465",
"G.	c #FDA567",
"H.	c #FC9C58",
"I.	c #FED9BD",
"J.	c #FDC59D",
"K.	c #FC9A56",
"L.	c #FD9148",
"M.	c #FDBB86",
"N.	c #FDDAC0",
"O.	c #FDA569",
"P.	c #FDA86D",
"Q.	c #FD964E",
"R.	c #FC9145",
"S.	c #FCA660",
"T.	c #FDCAA2",
"U.	c #FED7BC",
"V.	c #FD9D5C",
"W.	c #FD9C58",
"X.	c #FDD2AF",
"Y.	c #FED6BB",
"Z.	c #FDAA6F",
"`.	c #FD944A",
" +	c #FD9752",
".+	c #FD9247",
"++	c #FDD1AD",
"@+	c #FED8BD",
"#+	c #FC9248",
"$+	c #FD9F5C",
"%+	c #FD9E5B",
"&+	c #FED5B8",
"*+	c #FDB482",
"=+	c #FC8F44",
"-+	c #FDA762",
";+	c #FDAB6A",
">+	c #FED3B5",
",+	c #FDBB8D",
"'+	c #FC8C3F",
")+	c #FC9751",
"!+	c #FC944B",
"~+	c #FC944C",
"{+	c #FC9750",
"]+	c #FDBC8D",
"^+	c #FEE6D3",
"/+	c #FDAE6F",
"(+	c #FDC89D",
"_+	c #FED8BA",
":+	c #FEC8A3",
"<+	c #FDBE93",
"[+	c #FDB785",
"}+	c #FDBD91",
"|+	c #FEC49C",
"1+	c #FECDAB",
"2+	c #FDDDC3",
"3+	c #FEE4CE",
"4+	c #FDBC87",
"5+	c #FDC497",
"6+	c #FDCDA7",
"7+	c #FED6B6",
"8+	c #FED9BC",
"9+	c #FEDABD",
"0+	c #FED6B5",
"a+	c #FED0AC",
"b+	c #FDCAA1",
"c+	c #FDBE8A",
"d+	c #FCA560",
"e+	c #FDA764",
"                                                                ",
"                                                                ",
"        . + @ #                                                 ",
"    $ % & * = - @                                               ",
"    ; > , ' ) ! ~ {                                             ",
"  ] ^ / * ( _ : < [ }                                           ",
"  | 1 2 3 4 5 # 6 7 8 9                                         ",
"0 a b c - - d e f 3 g h                                         ",
"i j b k = 6 - l 3 m n o p                                       ",
"q j r s e 5 t f [ e u v w x                                     ",
"i ] y z - A B C D E F G H I J                                   ",
"K L M N O ! 4 9 f P c Q R S T                                   ",
"i 0 U V W X Y Z ` u  .R ..+.@.#.                                ",
"$.i %.&.*.- l Y 9 =.P -.;.>.,.'.N                               ",
"0 i K 1 ).!.~.{.` o c ].^./.(._.:.<.[.                          ",
"  i L }.|.1.2.Z e Z 3.].4.R 5.6.7.8.9.0./.                      ",
"  a.i %.% e : e n b.3.c.b.d.z s T e.6.,.5.S R f.                ",
"  $.i L g.h.i.~.j.e k.l.m.n.o.p.q.r.S k s.t.u.3.v.E             ",
"    w.0 x.y.{.A *.z.b.u -.Q A.H B.C.D.n.E.A.F.m G.f H.{         ",
"    q i L I.J.K.f t 9 f E.3.3.x s.G Q u.G.l.E t 8 7 Z L.@       ",
"    0 i 0 M.N.Q - X *.8 O.z.u g P.E.A.E.G.e E ~.f ~.Q.! - = R.  ",
"      a.i S.T.U.F d D e 3 O.V.[ 3.D P.k.G.< n ! ( W.6 W.( - 6   ",
"      0 K i a X.Y.Z.@ `.[ f ~.*.O.t ` 3 F.}  +f = W.* .+f : - - ",
"        0 i i a ++@+s #+$+( ~ } g } g : %+Y # } t } 3 - .+e # Q.",
"          i i i L U 1 &+*+=+- X ' _ Z _ _ f # 6 {.A f ( - K.e   ",
"            i i i -+;+T.1 >+,+P.H.'+)+l + d } - d !+~+{+8 ]+^+  ",
"              a.w.i i L /+(+_+1 &.V :+<+S [+p.*+}+|+1+r 2+3+    ",
"                  K w.i i -+| /+4+5+6+7+8+I.9+9+0+a+b+c+        ",
"                      0 K w.K i i 0 L ] ] ] ] ] d+L L           ",
"                              q e+K i e+i w.q K                 ",
"                                                                ",
"                                                                "};
