/* XPM */
static char *muse[]={
"32 32 559 2",
"Qt c None",
"gA c #a8a49a",
".Q c #bbb8b7",
"eh c #cacaca",
"gn c #cecbc9",
"gc c #cecdcc",
"c3 c #ded8cb",
".g c #fbe7d7",
"go c #8f846e",
".# c #fffffb",
"fv c #7d7c79",
"dX c #837762",
"e2 c #9f8a64",
".s c #eaaa7a",
".2 c #f1b282",
"aM c #4c4a4a",
"b0 c #6b6b6b",
"#o c #fac187",
"fD c #86714a",
"aE c #505050",
"gS c #5c5c5c",
"fg c #6f5043",
"ee c #897041",
"dY c #8f7344",
".l c #f9f7f0",
"bV c #706450",
"e1 c #836b3e",
"#a c #3f3633",
"#V c #584138",
".t c #f7bb83",
"ca c #424242",
"#z c #3a332f",
".z c #ccbd94",
".3 c #f0bb91",
"dm c #846a3a",
"an c #322f2e",
"#Z c #36312f",
"cz c #4f4f4f",
"dK c #484848",
"fQ c #846938",
"#0 c #bfab73",
"#n c #fcce9a",
"eA c #3b3b3b",
"gK c #373737",
"a3 c #626262",
"bl c #606060",
"fh c #353535",
".I c #e99b60",
"#p c #ec9e60",
"a2 c #4e4e4e",
"bI c #515151",
"ah c #676767",
"gz c #6e4739",
"ev c #826737",
"ag c #4a4a4a",
"bJ c #595959",
"#T c #4c4435",
"gR c #434343",
"cL c #474747",
"#1 c #98845a",
"bO c #484848",
"cU c #484848",
"bn c #595959",
"fq c #826735",
"cy c #414141",
"ez c #4a3932",
"bA c #555555",
"eN c #866a38",
"cW c #424242",
"cb c #4c4c4c",
"b7 c #4d4d4d",
"ci c #8a7240",
"e6 c #604236",
"fc c #7f6536",
"bm c #4a4a4a",
"cK c #a18850",
"c7 c #a58c53",
".f c #e49159",
".R c #dacb9b",
"cS c #4b4b4b",
".J c #fcecda",
"cX c #3d3d3d",
"f2 c #987d46",
"cT c #474747",
"bN c #4a4a4a",
"dc c #464646",
"a1 c #5b5b5b",
"ao c #806635",
"dG c #8b6f3c",
"#v c #84704a",
"dP c #414141",
"cx c #474747",
"bK c #535353",
"gL c #554a2f",
"d8 c #3e3e3e",
"bo c #4b4b4b",
"b8 c #505050",
"aj c #553c32",
"bH c #4e4e4e",
"bp c #505050",
"aF c #595959",
"aX c #5d5c5c",
"de c #434343",
"bj c #595959",
"eU c #373737",
"ds c #454545",
"bq c #4d4d4d",
"aG c #545454",
"#U c #575757",
"bU c #6a5a3d",
"fu c #897053",
".h c #fce8d0",
"e. c #3c3c3c",
"d5 c #3f3f3f",
"bM c #414141",
"dr c #434343",
"db c #464646",
"cw c #4a4a4a",
"cv c #4b4b4b",
"a5 c #4f4f4f",
"a4 c #535353",
"bG c #545454",
"bi c #5b5b5b",
"bc c #5f5f5f",
"e7 c #363636",
"ej c #3b3b3b",
"ei c #3c3c3c",
"dR c #3d3d3d",
"d6 c #3f3f3f",
"dB c #403f3f",
"dA c #404040",
"bL c #4b4b4b",
"cn c #4d4d4d",
"b9 c #505050",
"a0 c #565656",
"bk c #575757",
"bg c #5d5d5d",
"eV c #363636",
"en c #3c3c3c",
"c# c #3f3f3f",
"dz c #414141",
"dy c #424242",
"dx c #434343",
"dd c #454545",
"d. c #464646",
"c. c #4c4c4c",
"bh c #5a5a5a",
"aZ c #5b5b59",
"bd c #5f5f5f",
"ep c #3a3a3a",
"d9 c #3d3d3d",
"dM c #414141",
"cu c #4b4b4b",
"aW c #5c5c5c",
"aV c #616161",
"eo c #3b3b3b",
"df c #3e3e3e",
"au c #464646",
"ct c #494949",
"fj c #343434",
"f. c #363636",
"eC c #383838",
"dw c #424242",
"cV c #434343",
"d# c #464646",
"co c #4b4b4b",
"bC c #5a5a5a",
"dv c #434343",
"cO c #4a4a4a",
"cs c #4e4e4e",
"cm c #99814f",
"bv c #292929",
"em c #3b3b3b",
"dQ c #3e3e3e",
"at c #4b4b4b",
"aY c #585755",
"cN c #484848",
"dS c #4a403c",
"b6 c #505050",
"eW c #353535",
"cr c #4f4f4f",
"aR c #656564",
"gQ c #393939",
"f# c #423a36",
"bF c #575757",
"be c #5c5c5c",
"dq c #7e6641",
".b c #efe5c5",
"dN c #3f3f3f",
"da c #464646",
".y c #503c31",
"b4 c #535353",
"bB c #5c5c5c",
"eG c #383838",
"d2 c #3d3d3d",
"fk c #343434",
"d7 c #3d3d3d",
"cQ c #4b4b4b",
"aD c #52514d",
"#6 c #303030",
"eD c #373737",
"eH c #3c3a39",
"fy c #4e4d4d",
"aU c #5e5e5e",
"cR c #474747",
"b5 c #515151",
"f3 c #816836",
"#b c #b29c62",
".c c #f2a664",
"fw c #3f3f3f",
"b1 c #515151",
"bD c #575757",
"aT c #676767",
"eR c #373737",
"fl c #393838",
"aw c #4a4439",
"cp c #4c4c4c",
".m c #c1744c",
"eF c #383838",
"br c #393939",
"eE c #3a3a3a",
"b3 c #565656",
"#A c #947841",
"cM c #4c4c4c",
"dF c #806635",
"cG c #816735",
"eS c #383838",
"dt c #434343",
"dO c #3e3e3e",
"dJ c #70573c",
".8 c #927842",
"bP c #55443d",
"e8 c #353535",
"a7 c #362e2b",
"ek c #3a3a3a",
"d3 c #3e3e3e",
"bZ c #806842",
"fi c #353535",
"gm c #4a3d32",
"aI c #41332d",
"d4 c #3d3d3d",
"ai c #464646",
"cA c #534540",
"b2 c #545454",
"eT c #363636",
"c9 c #464646",
".1 c #f1b178",
"aN c #806635",
".9 c #5c3f34",
"a6 c #414141",
"dn c #8f723d",
"aS c #636363",
"eB c #383838",
"gB c #7c6335",
"c8 c #454545",
"el c #3b3b3b",
"du c #454545",
"aH c #444444",
".k c #a38a51",
"e9 c #343434",
"dL c #3e3e3e",
"fx c #444444",
"dg c #4d413b",
"cP c #4a4a4a",
"bz c #615139",
"bE c #585858",
"eq c #433a36",
"cq c #505050",
"c4 c #947840",
"fK c #989281",
"fp c #7f6535",
"cj c #9e8348",
"av c #3e3e3e",
"bW c #a1874b",
"#q c #f2d4b7",
"ew c #886c39",
".a c #fbf7e4",
"af c #5d5036",
"b# c #8a6e3a",
"bf c #5d5d5d",
"eM c #816634",
"cH c #987c45",
".r c #e49159",
"ax c #846f43",
"bw c #9a7f46",
"gd c #816737",
"b. c #272727",
"gp c #806736",
"fd c #826635",
"d1 c #664e3c",
"bT c #726344",
".4 c #fcf3e7",
"gP c #292827",
"as c #434342",
"bb c #433b2f",
".u c #fdf0df",
"aC c #6e5e3f",
"eQ c #573d32",
"c2 c #816634",
".N c #897045",
"fJ c #afa487",
"gb c #957c46",
"#7 c #3c3932",
"dW c #806634",
"cY c #675142",
".e c #eb9b5e",
"eX c #443a35",
"#w c #6c4537",
"fE c #816634",
"#m c #eba66e",
"fz c #5c4e42",
"fC c #816634",
"fL c #836f64",
"#5 c #282828",
"gO c #282827",
".i c #fdfaed",
"dC c #5a463a",
"#8 c #78653e",
"#S c #857045",
".H c #e18e57",
"fP c #917640",
"eI c #64523e",
"bs c #6a4a3c",
"cc c #846850",
"ff c #5d3f33",
"fm c #60503d",
"gy c #784a38",
".d c #f4a965",
"ef c #8c703b",
"ft c #604034",
"eg c #614838",
"ed c #816634",
"fI c #c2a680",
"ay c #a7925f",
"e# c #57453a",
"e0 c #806534",
"gM c #333029",
".K c #fef8ee",
"aQ c #2e2c28",
"e3 c #866a38",
"aB c #856e3f",
"aL c #2e2a28",
"dl c #816634",
"#9 c #bfa972",
"gJ c #433d3b",
"#G c #725d37",
"ae c #8f7746",
"fR c #8b6f3a",
".P c #4b372f",
".x c #8a6b45",
"gN c #262626",
"fa c #786444",
"#B c #927742",
".0 c #dc8b58",
"#r c #fdf6eb",
"#u c #a28d5b",
".B c #f9f6f3",
"ch c #876c38",
".7 c #c6b481",
"dh c #917751",
".A c #fbfaf1",
".5 c #fefcf3",
"#W c #724737",
"eu c #816634",
"cB c #9b855b",
"aA c #a28e5a",
"fb c #816634",
"#2 c #866a37",
"dZ c #91753e",
"#C c #836836",
".q c #e8965a",
"#N c #f4c8a1",
"gC c #8b703b",
"az c #ab9769",
".M c #d8c99c",
"f6 c #eddfbd",
"bu c #262626",
"#4 c #272727",
"ar c #282828",
"aP c #292827",
"a9 c #2a2827",
"a8 c #312b29",
"by c #352d29",
"aq c #383329",
"am c #392f2a",
"bt c #3a2f2b",
"bY c #3b312b",
"#E c #3d372a",
"#Y c #41332c",
"cl c #42342d",
"aK c #45342d",
"#y c #47352e",
"cJ c #493930",
"## c #4a372f",
"#F c #4c412c",
"gI c #4f3d35",
"#3 c #50442c",
"aJ c #523a31",
"c6 c #5a4535",
"al c #5e3f33",
"gF c #654335",
"e5 c #654938",
"fs c #674c39",
"ak c #6c4536",
".O c #6d4536",
"gl c #6d5d3e",
"#. c #6e4637",
"dp c #6e563d",
"#D c #6e5a36",
"gH c #704b39",
"#X c #714737",
"bS c #716545",
"#x c #774938",
"ey c #785d3f",
"bx c #7f6d46",
"cF c #816634",
"dI c #816943",
"eL c #826634",
"fe c #826640",
"cg c #826735",
"fr c #836735",
"dk c #836835",
"fB c #846836",
"ec c #856936",
"gx c #86503b",
"er c #867149",
"cE c #876b38",
"bX c #887347",
"ba c #887447",
"dE c #896e39",
"dT c #89704b",
"#e c #8a6e3a",
"et c #8b6f3a",
"eO c #8c703b",
"ap c #8d713c",
"eP c #8e7144",
"#f c #8e723d",
"fo c #8f723d",
"gv c #905a42",
"c1 c #90743d",
"#d c #90743f",
"eK c #91743e",
"dV c #91753f",
"f4 c #92763f",
"ex c #947741",
"eZ c #947840",
"eY c #947c4b",
"e4 c #957842",
"d0 c #957948",
"aO c #957a44",
"gG c #965f44",
"gq c #967942",
"cf c #967a42",
"eb c #967b43",
"ck c #967e4b",
"dH c #977b42",
"ge c #977c43",
"dj c #987c43",
"gw c #995a40",
"es c #997d44",
"fG c #9b6349",
"fn c #9b7f47",
"gE c #9b8f71",
"fH c #9c6044",
"do c #9c8147",
"#H c #9c8349",
"cD c #9d8148",
"#g c #9d8349",
"fA c #9d8551",
"eJ c #9f8449",
"dU c #9f844a",
"c5 c #a1864a",
"c0 c #a1864b",
"fW c #a2795c",
"ea c #a38a50",
"cI c #a4894f",
"#c c #a48b52",
"di c #a58b4e",
"fV c #a76143",
"ce c #a78d50",
"fS c #a78e52",
"bR c #a78f5b",
"cC c #ab9154",
"#k c #ac7257",
"dD c #ac9257",
"gD c #ad9559",
"fF c #ae9460",
"gk c #b3a57e",
"f1 c #b49d61",
"cZ c #b59c60",
"bQ c #b5a171",
"f5 c #b8a166",
"fX c #b8a786",
"f8 c #b96f4b",
"fU c #ba7b59",
"#h c #baa46a",
".Y c #bb7f63",
"cd c #bba568",
"gr c #bda76c",
"gu c #bf9c88",
"gf c #c0ab71",
"#R c #c0ac78",
".Z c #c1724b",
".E c #c6774d",
"ga c #c7b47c",
"ad c #c7b483",
"#K c #c8b0a2",
"#I c #cab77f",
"fO c #cab781",
"f9 c #cdbda3",
"#l c #ce8357",
".F c #d17d4f",
"gj c #d2c7a4",
"#L c #d4a184",
"#j c #d4bda6",
"fT c #d5bd91",
".X c #d8bba6",
"fY c #d8c8af",
".G c #da8552",
"f7 c #daa887",
".D c #dda788",
"#i c #dfd2a8",
"fM c #e0d1b8",
".U c #e0d4ab",
".w c #e2d5ae",
".j c #e5d8b1",
"#t c #e5d9b2",
".T c #e5d9b3",
".V c #e5dbba",
".C c #e8c6b2",
"a. c #eadfbb",
"gs c #ebe0be",
"#M c #ecb284",
"f0 c #ece2bd",
"#J c #eee5c9",
".W c #eee5cc",
".n c #efa161",
".p c #efa262",
".S c #efe6c5",
"#Q c #efe6c7",
"fN c #f1e7c6",
"g# c #f2e9ca",
"gg c #f2ecd1",
"ac c #f3ebcf",
"gi c #f5efd9",
".6 c #f7f0d8",
"g. c #f8f1d8",
"#O c #f9e7d3",
"fZ c #f9f2d9",
".o c #fabe83",
"gh c #faf3e5",
"a# c #fbf7e9",
"#s c #fbf8e6",
".L c #fcf8e8",
"#P c #fdfaec",
".v c #fdfbed",
"ab c #fdfbee",
"aa c #fefcf3",
"gt c #fefcf4",
"QtQtQtQtQtQtQtQtQtQtQtQtQtQtQtQtQtQtQtQtQtQtQtQt.#.a.bQtQtQtQtQt",
"QtQtQtQtQt.c.d.e.fQtQtQtQtQtQtQtQtQtQtQtQtQt.g.h.i.j.kQtQtQtQtQt",
"QtQtQt.l.m.n.o.p.q.r.sQtQtQtQtQtQtQtQtQtQt.t.u.v.w.x.yQtQtQtQtQt",
"QtQt.z.A.B.C.D.E.F.G.H.IQtQtQtQtQtQtQtQt.J.K.L.M.N.O.P.QQtQtQtQt",
"QtQt.R.S.T.U.V.W.X.Y.Z.0.1.2QtQtQtQt.3.4.5.6.7.8.9#.###aQtQtQtQt",
"QtQt#b#c#d#e#f#g#h#i#j#k#l#m#n#o#p#q#r#s#t#u#vQt#w#x#y#zQtQtQtQt",
"QtQt#A#B#C#D#E#F#G#H#I#J#K#L#M#N#O#P#Q#R#S#T#U#V#W#X#Y#ZQtQtQtQt",
"QtQt#0#1#2#3#4#5#6#7#8#9a.a#aaabacadaeafagahaiajakalamanQtQtQtQt",
"QtQtQtaoapaqarasatauavawaxayazaAaBaCaDaEaFaGaHaIaJaKaLaMQtQtQtQt",
"QtQtQtaNaOaPaQaRaSaTaUaVaWaXaYaZa0a1a2a3a4a5a6a7a8a9b.QtQtQtQtQt",
"QtQtQtb#baa9bbbcbdbebfbgbhbibjbkblbmbnbobpbqbrbsbtbubvQtQtQtQtQt",
"QtQtQtbwbxbybzbAbBbCbDbEbFbGbHbIbJbKbLbMbNbObPbQbRbSbTbUbVQtQtQt",
"QtQtQtbWbXbYbZb0b1b2b3b4b5b6b7b8b9c.c.c#cacbcccdcecfcgchciQtQtQt",
"QtQtQtcjckclcmQtcncocpcqcrcsctcucvcwcxcyczcAcBcCcDcEcFcGQtQtQtQt",
"QtQtQtcHcIcJcKQtcLcMcNcOcPcQcRcScTcUcVcWcXcYcZc0c1cFc2c3QtQtQtQt",
"QtQtQtc4c5c6c7QtQtcNc8c9d.d#dadbdcdddedfdgdhdidjdkdldmQtQtQtQtQt",
"QtQtQtdndodpdqQtQtdrdsdtdudvdwdxdydzdAdBdCdDdodEcFdFQtQtQtQtQtQt",
"QtQtQtdGdHdIdJQtQtdKdLdMdNa6dwdOdPdQdRdSdTdUdVcFdWdXQtQtQtQtQtQt",
"QtQtQtdYdZd0d1QtQtQtd2d3d4d5d6d7d8d9e.e#eaebecedeeQtQtQtQtQtQtQt",
"QtQtQtQtefdoegehQtQteiejekelemeneoepeqereseteuevQtQtQtQtQtQtQtQt",
"QtQtQtQtewexeyezQtQteAeBeCeDeEeFeGeHeIeJeKeLeMQtQtQtQtQtQtQtQtQt",
"QtQtQtQteNeOePeQQtQtQteReSeTeUeVeWeXeYeZece0e1QtQtQtQtQtQtQtQtQt",
"QtQtQtQte2e3e4e5e6QtQteUe7e8e9f.f#facf#efbfcQtQtQtQtQtQtQtQtQtQt",
"QtQtQtQtQtfd#efefffgQtfhfifjfkflfmfnfocFfpQtQtQtQtQtQtQtQtQtQtQt",
"QtQtQtQtQtfqfrdVfsftfufvfwfxfyfzfAeKfBfCfDQtQtQtQtQtQtQtQtQtQtQt",
"QtQtQtQtQtQtfEeOfFfGfHfIfJfKfLfMfNfOfPeeQtQtQtQtQtQtQtQtQtQtQtQt",
"QtQtQtQtQtQtfQfRfSfTfUfVfWfXfYfZf0f1f2QtQtQtQtQtQtQtQtQtQtQtQtQt",
"QtQtQtQtQtQtQtf3f4f5f6f7f8f9g.g#gagbQtQtQtQtQtQtQtQtQtQtQtQtQtQt",
"QtQtQtQtQtQtQtgcgdgegfggghgigjgkglgmgnQtQtQtQtQtQtQtQtQtQtQtQtQt",
"QtQtQtQtQtQtQtQtgogpgqgrgsgtgugvgwgxgygzQtQtQtQtQtQtQtQtQtQtQtQt",
"QtQtQtQtQtQtQtQtQtgAgBgCgDgEgFgGgHgIgJgKQtQtQtQtQtQtQtQtQtQtQtQt",
"QtQtQtQtQtQtQtQtQtQtQtgLgMgNgOgPgQgRgSQtQtQtQtQtQtQtQtQtQtQtQtQt"};
