/* XPM */
static char * qpxtool_xpm[] = {
"32 32 485 2",
"  	c None",
". 	c #634F3E",
"+ 	c #664F39",
"@ 	c #66503C",
"# 	c #65513E",
"$ 	c #604B38",
"% 	c #56402D",
"& 	c #483625",
"* 	c #453A32",
"= 	c #363535",
"- 	c #141110",
"; 	c #49321D",
"> 	c #886647",
", 	c #C1AB97",
"' 	c #DDCFC2",
") 	c #E9DCD0",
"! 	c #EFE3D8",
"~ 	c #EFE2D7",
"{ 	c #E5D8CC",
"] 	c #D4C8BB",
"^ 	c #B49C86",
"/ 	c #664A30",
"( 	c #191008",
"_ 	c #201F1F",
": 	c #3E3E3E",
"< 	c #261A11",
"[ 	c #835F3E",
"} 	c #E7D4C3",
"| 	c #FBF8F4",
"1 	c #FEFDFB",
"2 	c #FFFEFD",
"3 	c #FFFEFC",
"4 	c #FFFDFA",
"5 	c #FFFBF7",
"6 	c #FFFCF8",
"7 	c #FFFEFA",
"8 	c #FEFCF9",
"9 	c #FAF4ED",
"0 	c #D7BCA3",
"a 	c #513C2A",
"b 	c #100B06",
"c 	c #232323",
"d 	c #3E2918",
"e 	c #B09175",
"f 	c #F5EBE1",
"g 	c #FFFAF7",
"h 	c #FFF9F4",
"i 	c #FFF9F5",
"j 	c #FFFAF6",
"k 	c #FFF8F1",
"l 	c #FFF4E7",
"m 	c #FFF6EA",
"n 	c #FFF8EB",
"o 	c #FFFAEE",
"p 	c #FFFDF3",
"q 	c #FFFFF9",
"r 	c #EEDECE",
"s 	c #866A51",
"t 	c #1D130B",
"u 	c #161616",
"v 	c #23170E",
"w 	c #C1A081",
"x 	c #FBE1CE",
"y 	c #FFECDF",
"z 	c #FFF4EC",
"A 	c #FFF5EE",
"B 	c #FFF6EF",
"C 	c #FFF5E9",
"D 	c #FFF0DA",
"E 	c #FFF4DF",
"F 	c #FFF6E3",
"G 	c #FFFAE7",
"H 	c #FFFEEB",
"I 	c #FFFFF2",
"J 	c #FFFFFC",
"K 	c #F3EADF",
"L 	c #94785D",
"M 	c #110C07",
"N 	c #141414",
"O 	c #1D1815",
"P 	c #AA835F",
"Q 	c #FDD9BE",
"R 	c #FFCBAA",
"S 	c #FFD0B2",
"T 	c #FFE8D7",
"U 	c #FFF1E6",
"V 	c #FFF2E8",
"W 	c #FFF4E9",
"X 	c #FFF6EC",
"Y 	c #FFF2E1",
"Z 	c #FFEED1",
"` 	c #FFF4D8",
" .	c #FFF8DD",
"..	c #FFFDE3",
"+.	c #FFFFED",
"@.	c #FFFFF8",
"#.	c #FFFEF9",
"$.	c #FFFCF2",
"%.	c #F9EDD8",
"&.	c #715339",
"*.	c #050303",
"=.	c #1C1B1A",
"-.	c #573C23",
";.	c #F3CAA8",
">.	c #FFBE94",
",.	c #FFC095",
"'.	c #FFC59B",
").	c #FFD2AD",
"!.	c #FFE8D4",
"~.	c #FFF1E3",
"{.	c #FFF3E5",
"].	c #FFF5E8",
"^.	c #FFF2DB",
"/.	c #FFF0CB",
"(.	c #FFF8D4",
"_.	c #FFFCDA",
":.	c #FFFFE8",
"<.	c #FFFFF6",
"[.	c #FFFDF8",
"}.	c #FFFAEB",
"|.	c #FFF7DD",
"1.	c #FFF7D9",
"2.	c #E2C8A4",
"3.	c #2A190C",
"4.	c #060606",
"5.	c #251C15",
"6.	c #AC8867",
"7.	c #FDBB8D",
"8.	c #FFB380",
"9.	c #FFBA88",
"0.	c #FFC08F",
"a.	c #FFC898",
"b.	c #FFD7AF",
"c.	c #FFEDD9",
"d.	c #FFF4E4",
"e.	c #FFF7E7",
"f.	c #FFF5D9",
"g.	c #FFF6CA",
"h.	c #FFFDD5",
"i.	c #FFFFE1",
"j.	c #FFFFF4",
"k.	c #FFFDF6",
"l.	c #FFFAE8",
"m.	c #FFF5D7",
"n.	c #FFF1C7",
"o.	c #FFECB8",
"p.	c #F9E8B7",
"q.	c #836345",
"r.	c #080504",
"s.	c #412E1B",
"t.	c #DCAA7D",
"u.	c #FFA86C",
"v.	c #FFAF72",
"w.	c #FFB57B",
"x.	c #FFBD84",
"y.	c #FFC78E",
"z.	c #FFCF98",
"A.	c #FFE0B4",
"B.	c #FFF3DE",
"C.	c #FFF1D9",
"D.	c #FFECC2",
"E.	c #FFF1B9",
"F.	c #FFFAD7",
"G.	c #FFFEF3",
"H.	c #FFFDF4",
"I.	c #FFF8E2",
"J.	c #FFF3D0",
"K.	c #FFEDBA",
"L.	c #FFE8A8",
"M.	c #FFE497",
"N.	c #FFE18C",
"O.	c #BFA073",
"P.	c #1E1207",
"Q.	c #4D4C4A",
"R.	c #6A4E34",
"S.	c #F6AB6F",
"T.	c #FFA15C",
"U.	c #FFAB68",
"V.	c #FFB471",
"W.	c #FFBD7C",
"X.	c #FFC988",
"Y.	c #FFD394",
"Z.	c #FFDC9D",
"`.	c #FFDEA4",
" +	c #FFE5B8",
".+	c #FEEDB8",
"++	c #FEEEBC",
"@+	c #FFE9C6",
"#+	c #FFEFD8",
"$+	c #FFF6DC",
"%+	c #FFF0C5",
"&+	c #FFE9AF",
"*+	c #FFE397",
"=+	c #FFDE82",
"-+	c #FFD96E",
";+	c #FFD355",
">+	c #E0BA6B",
",+	c #46311E",
"'+	c #353535",
")+	c #2B2724",
"!+	c #815D3A",
"~+	c #FE9D50",
"{+	c #FF9946",
"]+	c #FFAA5F",
"^+	c #FFB66C",
"/+	c #FFC078",
"(+	c #FFCD86",
"_+	c #FFD994",
":+	c #FFDB92",
"<+	c #FFDB8B",
"[+	c #EEDEA3",
"}+	c #C0B18E",
"|+	c #CBBEA5",
"1+	c #F8E6C7",
"2+	c #FFDCA9",
"3+	c #FFE9B6",
"4+	c #FFE8A7",
"5+	c #FFE08D",
"6+	c #FFD972",
"7+	c #FFD359",
"8+	c #FFCB3E",
"9+	c #FFC21D",
"0+	c #F1BE4A",
"a+	c #5E452B",
"b+	c #181717",
"c+	c #15110D",
"d+	c #88623D",
"e+	c #FFA14F",
"f+	c #FF9A3F",
"g+	c #FFAA54",
"h+	c #FFB966",
"i+	c #FFC676",
"j+	c #FFD587",
"k+	c #FFE297",
"l+	c #FFDB87",
"m+	c #FFE997",
"n+	c #CBBE91",
"o+	c #D2CBC3",
"p+	c #DFD6CD",
"q+	c #DDCAA2",
"r+	c #FFD78F",
"s+	c #FFD989",
"t+	c #FFDD80",
"u+	c #FFD563",
"v+	c #FFCC43",
"w+	c #FFC323",
"x+	c #FFBD0B",
"y+	c #FFBB04",
"z+	c #F5BE3A",
"A+	c #694C2F",
"B+	c #0A0807",
"C+	c #0B0703",
"D+	c #876139",
"E+	c #FFAB5A",
"F+	c #FFA951",
"G+	c #FFB861",
"H+	c #FFC46F",
"I+	c #FFD27E",
"J+	c #FFE190",
"K+	c #FFF1A1",
"L+	c #FFE793",
"M+	c #FFE6A6",
"N+	c #DBCFB5",
"O+	c #E2D7CC",
"P+	c #E8D8C3",
"Q+	c #E9CB8B",
"R+	c #FFCB6C",
"S+	c #FFD065",
"T+	c #FFD154",
"U+	c #FFC835",
"V+	c #FFC015",
"W+	c #FFBB02",
"X+	c #FFBA00",
"Y+	c #FFBB03",
"Z+	c #F4BC3A",
"`+	c #66492B",
" @	c #0F0C09",
".@	c #7A5632",
"+@	c #FCB365",
"@@	c #FFB760",
"#@	c #FFC671",
"$@	c #FFD27F",
"%@	c #FFE08E",
"&@	c #FFF0A0",
"*@	c #FFFBB5",
"=@	c #FFF6C4",
"-@	c #FFDDAD",
";@	c #FCE2BD",
">@	c #E8D6B5",
",@	c #F2D8AC",
"'@	c #FFC453",
")@	c #FFCF50",
"!@	c #FFC018",
"~@	c #FFBB06",
"{@	c #ECB641",
"]@	c #583C22",
"^@	c #100F0F",
"/@	c #1A1919",
"(@	c #5D4023",
"_@	c #F0B66C",
":@	c #FFC570",
"<@	c #FFD380",
"[@	c #FFE08F",
"}@	c #FFEF9E",
"|@	c #FFFBB3",
"1@	c #FFFFD2",
"2@	c #FFFEF0",
"3@	c #FFEDCF",
"4@	c #FFD99D",
"5@	c #FFDAA0",
"6@	c #FFD9A0",
"7@	c #FFD790",
"8@	c #FFD261",
"9@	c #FFC934",
"0@	c #FFBB05",
"a@	c #FFBB08",
"b@	c #D7A447",
"c@	c #3A2513",
"d@	c #292929",
"e@	c #434343",
"f@	c #2A1808",
"g@	c #C9995C",
"h@	c #FFD684",
"i@	c #FFE493",
"j@	c #FFF2A1",
"k@	c #FFFCB5",
"l@	c #FFFFD8",
"m@	c #FFFEF1",
"n@	c #FFF8E5",
"o@	c #FFF0C6",
"p@	c #FFE9AC",
"q@	c #FFEBBC",
"r@	c #FFEEC4",
"s@	c #FFEFC1",
"t@	c #FFE8AB",
"u@	c #FFC936",
"v@	c #FFBA01",
"w@	c #FEBF1C",
"x@	c #AD7C41",
"y@	c #120801",
"z@	c #4D4D4D",
"A@	c #515151",
"B@	c #070300",
"C@	c #8D6032",
"D@	c #FADB8E",
"E@	c #FFF4A4",
"F@	c #FFFFD4",
"G@	c #FFF8E6",
"H@	c #FFF0C7",
"I@	c #FFE292",
"J@	c #FFEBB4",
"K@	c #FFE9AD",
"L@	c #FFDE85",
"M@	c #F5BA40",
"N@	c #643E1D",
"O@	c #020000",
"P@	c #2D1807",
"Q@	c #E4B46C",
"R@	c #FFFAB9",
"S@	c #FFFFD7",
"T@	c #FFFFF0",
"U@	c #FFF0C8",
"V@	c #FFE8A9",
"W@	c #FFE089",
"X@	c #FFDA77",
"Y@	c #FFE8AA",
"Z@	c #FFEBB5",
"`@	c #FFE6A4",
" #	c #FFE5A4",
".#	c #FFDB7A",
"+#	c #FFC11A",
"@#	c #FFC121",
"##	c #C78A3D",
"$#	c #140902",
"%#	c #1C1C1C",
"&#	c #343434",
"*#	c #010100",
"=#	c #623D18",
"-#	c #F2CB92",
";#	c #FFF9E9",
">#	c #FFEFC4",
",#	c #FFE8A6",
"'#	c #FFDF87",
")#	c #FFD667",
"!#	c #FFD258",
"~#	c #FFE49B",
"{#	c #FFE5A3",
"]#	c #FFDB7C",
"^#	c #FFC017",
"/#	c #FEBD19",
"(#	c #E09F3D",
"_#	c #3E240C",
":#	c #040404",
"<#	c #111111",
"[#	c #0C0602",
"}#	c #835628",
"|#	c #EDC088",
"1#	c #FFE9B9",
"2#	c #FFD668",
"3#	c #FFCE48",
"4#	c #FFE18F",
"5#	c #FFE7A8",
"6#	c #FED068",
"7#	c #DC9A37",
"8#	c #603B16",
"9#	c #070401",
"0#	c #101010",
"a#	c #2A2A2A",
"b#	c #030303",
"c#	c #130A02",
"d#	c #663F17",
"e#	c #DEA257",
"f#	c #FFD77F",
"g#	c #FFD86B",
"h#	c #FFCF49",
"i#	c #FFC629",
"j#	c #FFC526",
"k#	c #FFDF89",
"l#	c #FFE5A1",
"m#	c #FFD387",
"n#	c #C58943",
"o#	c #4A2B0F",
"p#	c #0B0601",
"q#	c #000000",
"r#	c #171717",
"s#	c #050200",
"t#	c #291606",
"u#	c #9F6525",
"v#	c #E2A345",
"w#	c #F6BB3D",
"x#	c #FDBC1A",
"y#	c #FFC122",
"z#	c #FFDD87",
"A#	c #FFE39F",
"B#	c #FEE09A",
"C#	c #FCDA92",
"D#	c #F4C77A",
"E#	c #D99B4F",
"F#	c #84511C",
"G#	c #1B0E04",
"H#	c #030101",
"I#	c #010101",
"J#	c #2C2C2C",
"K#	c #060300",
"L#	c #341C06",
"M#	c #794919",
"N#	c #AE742F",
"O#	c #C88C3B",
"P#	c #D09A51",
"Q#	c #CF9A54",
"R#	c #C48C4A",
"S#	c #A87035",
"T#	c #6D4216",
"U#	c #030100",
"V#	c #303030",
"W#	c #19120C",
"X#	c #2B1E13",
"Y#	c #332211",
"Z#	c #312111",
"`#	c #281C11",
" $	c #18110D",
".$	c #272727",
"+$	c #5A5A5A",
"@$	c #181818",
"#$	c #020202",
"$$	c #131313",
"%$	c #1D1D1D",
"&$	c #3D3D3D",
"*$	c #666666",
"=$	c #323232",
"-$	c #0C0C0C",
";$	c #050505",
">$	c #565656",
",$	c #0D0D0D",
"'$	c #080808",
")$	c #2B2B2B",
"!$	c #585858",
"~$	c #0A0A0A",
"{$	c #3F3F3F",
"]$	c #808080",
"^$	c #3A3A3A",
"/$	c #0E0E0E",
"($	c #1A1A1A",
"_$	c #191919",
":$	c #0B0B0B",
"                                                                ",
"                        . + @ # $ % & * =                       ",
"                  - ; > , ' ) ! ~ { ] ^ / ( _ :                 ",
"                < [ } | 1 2 3 4 5 6 7 8 9 0 a b c               ",
"              d e f g h h i j k l m n o p q r s t u             ",
"            v w x y z z A B k C D E F G H I J K L M N           ",
"          O P Q R S T U V W X Y Z `  ...+.@.#.$.%.&.*.          ",
"        =.-.;.>.,.'.).!.~.{.].^./.(._.:.<.[.}.|.1.2.3.4.        ",
"        5.6.7.8.9.0.a.b.c.d.e.f.g.h.i.j.k.l.m.n.o.p.q.r.        ",
"        s.t.u.v.w.x.y.z.A.B.C.D.E.F.G.H.I.J.K.L.M.N.O.P.        ",
"      Q.R.S.T.U.V.W.X.Y.Z.`. +.+++@+#+$+%+&+*+=+-+;+>+,+'+      ",
"      )+!+~+{+]+^+/+(+_+:+<+[+}+|+1+2+3+4+5+6+7+8+9+0+a+b+      ",
"      c+d+e+f+g+h+i+j+k+l+m+n+o+p+q+r+s+t+u+v+w+x+y+z+A+B+      ",
"      C+D+E+F+G+H+I+J+K+L+M+N+O+P+Q+R+S+T+U+V+W+X+Y+Z+`+*.      ",
"       @.@+@@@#@$@%@&@*@=@-@;@>@,@$@'@)@U+!@Y+X+X+~@{@]@^@      ",
"      /@(@_@:@<@[@}@|@1@2@3@4@5@6@7@8@9@!@0@X+X+X+a@b@c@d@      ",
"      e@f@g@h@i@j@k@l@m@n@o@p@q@r@s@t@u@v@X+X+X+X+w@x@y@z@      ",
"      A@B@C@D@E@k@F@2@G@H@4+I@o.s@J@K@L@w+v@X+X+Y+M@N@O@        ",
"        4.P@Q@R@S@T@G@U@V@W@X@Y@Z@V@`@ #.#+#X+X+@###$#%#        ",
"        &#*#=#-#;#n@>#,#'#)#!#~#V@`@{#{#M+]#^#/#(#_#:#          ",
"          <#[#}#|#1#,#'#2#3#8+4# #{#{#{#`@5#6#7#8#9#0#          ",
"          a#b#c#d#e#f#g#h#i#j#k# #`@`@,#l#m#n#o#p#q#            ",
"            r#:#s#t#u#v#w#x#y#z#A#B#C#D#E#F#G#H#I#              ",
"              J#0#q#K#L#M#N#O#P#Q#R#S#T#t#U#:#u                 ",
"                  V#b#q#U#W#X#Y#Z#`# $I#b#.$                    ",
"                      +$r#@$#$I#$$%$&$*$                        ",
"                          =$-$;$>$                              ",
"                      ,$I#q#q#q#q#'$)$,$!$                      ",
"                  b#;$b#I#q#b#b#q#q#q##$<#~${$]$      b#b#      ",
"                b#:#u         ^$/$c ~$q#q#q#q#q#b#($_$:#b#b#    ",
"                                      r#&#:$q#q#q#I#:$          ",
"                                                                "};
