/* XPM */
static char *noname[] = {
/* width height ncolors chars_per_pixel */
"32 32 8 1",
/* colors */
"  c #000000",
". c #CA8AC9",
"X c #57ACDA",
"o c #ABDBF4",
"O c #72BDE6",
"@ c #87CCF2",
"# c #CDE9F8",
"+ c None",
/* pixels */
"+        ++++      +++         +",
"          ++        +           ",
"  ######   +  ####      #####X  ",
"  #oooooX     #ooX     #ooooXX  ",
"    #o@@OX    #oOX    #o@@OX    ",
"+    #o@OX    #oOX    #o@OX    +",
"+++  #o@OX    #oOX    #o@OX  +++",
"+++  #o@OX    #oOX    #o@OX  +++",
"+++  #o@@OX   #oOX   #o@@OX  +++",
"+++  #o@@OX   #oOX   #o@@OX  +++",
"+++   #o@OX   #oOX   #o@OX   +++",
"++++  #o@OX   #oOX   #o@OX  ++++",
"++++  #o@OX   #oOX   #o@OX  ++++",
"++++  #o@OX   #oOX   #o@OX  ++++",
"++++  #o@OX   #oOX   #o@OX  ++++",
"++++  #o@OX   #oOX   #o@OX    ++",
"++++   #o@OX  #oOX  #o@OX      +",
"+++++  #o@OX  #oOX  #o@OX   ..  ",
"+++++   Xo@OX #oOX #o@OX ..  .. ",
"++++++   Xo@@@@@OOOOOO..  .. .. ",
"+++++++   XXXooo@OOXXX .. .. .. ",
"++++++++     XXoOXX    .. .. .. ",
"+++++++++     #oOX     .. .. .. ",
"++++++++++++  #oOX  + ..  .. .. ",
"++++++++++++  #oOX  +    ..  .. ",
"++++++++++++  #oOX  ++      ..  ",
"++++++++++++  #oOX  ++++       +",
"++++++++++++  #oOX  ++++++    ++",
"++++++++++++  #oOX  ++++++++++++",
"++++++++++++  #XXX  ++++++++++++",
"++++++++++++        ++++++++++++",
"+++++++++++++      +++++++++++++"
};
