/* XPM */
static char * DC++_xpm[] = {
"45 45 689 2",
"  	c None",
". 	c #0B0B0B",
"+ 	c #111111",
"@ 	c #212121",
"# 	c #181818",
"$ 	c #0A0A0A",
"% 	c #060606",
"& 	c #020202",
"* 	c #1F1F1F",
"= 	c #4B4B4B",
"- 	c #6D6D6D",
"; 	c #7B7B7B",
"> 	c #7A7A7A",
", 	c #727272",
"' 	c #575757",
") 	c #2F2F2F",
"! 	c #090909",
"~ 	c #000000",
"{ 	c #010101",
"] 	c #0C0C0C",
"^ 	c #141414",
"/ 	c #202020",
"( 	c #2E2E2E",
"_ 	c #323232",
": 	c #313131",
"< 	c #2D2D2D",
"[ 	c #272727",
"} 	c #0F0F0F",
"| 	c #414141",
"1 	c #9E9E9E",
"2 	c #9F9F9F",
"3 	c #464646",
"4 	c #030303",
"5 	c #3F3F3F",
"6 	c #8F8F8F",
"7 	c #878787",
"8 	c #E7E7E7",
"9 	c #C0C0C0",
"0 	c #CACACA",
"a 	c #EFEFEF",
"b 	c #E8E8E8",
"c 	c #D1D1D1",
"d 	c #E1E1E1",
"e 	c #A5A5A5",
"f 	c #8E8E8E",
"g 	c #080808",
"h 	c #0E0E0E",
"i 	c #B9B9B9",
"j 	c #B0B0B0",
"k 	c #BBBBBB",
"l 	c #828282",
"m 	c #151515",
"n 	c #C5C5C5",
"o 	c #939393",
"p 	c #BDBDBD",
"q 	c #6C6C6C",
"r 	c #9D9D9D",
"s 	c #C9C9C9",
"t 	c #D7D7D7",
"u 	c #5D5D5D",
"v 	c #ABABAB",
"w 	c #B1B1B1",
"x 	c #040404",
"y 	c #848484",
"z 	c #E6E6E6",
"A 	c #787878",
"B 	c #888888",
"C 	c #F3F3F3",
"D 	c #A6A6A6",
"E 	c #DFDFDF",
"F 	c #707070",
"G 	c #8C8C8C",
"H 	c #F5F5F5",
"I 	c #7D7D7D",
"J 	c #131313",
"K 	c #B8B8B8",
"L 	c #F0F0F0",
"M 	c #D6D6D6",
"N 	c #908F8E",
"O 	c #151414",
"P 	c #030301",
"Q 	c #212120",
"R 	c #9F9F9E",
"S 	c #F4F4F4",
"T 	c #282723",
"U 	c #2B240C",
"V 	c #604F13",
"W 	c #8E741C",
"X 	c #AD8D22",
"Y 	c #8C721C",
"Z 	c #544410",
"` 	c #292413",
" .	c #373635",
"..	c #594714",
"+.	c #E6BA31",
"@.	c #FFD133",
"#.	c #FDCF33",
"$.	c #D3A82F",
"%.	c #493911",
"&.	c #1A1A1A",
"*.	c #282111",
"=.	c #99712E",
"-.	c #DAA83A",
";.	c #FBCC34",
">.	c #F3C335",
",.	c #CA983B",
"'.	c #846229",
").	c #251E10",
"!.	c #2C2C2C",
"~.	c #BEBEBE",
"{.	c #8A8A8A",
"].	c #24201C",
"^.	c #593C23",
"/.	c #AF7E3C",
"(.	c #CE9B3D",
"_.	c #8B6134",
":.	c #3B2817",
"<.	c #32302D",
"[.	c #989898",
"}.	c #BABABA",
"|.	c #7E7E7E",
"1.	c #D4D4D4",
"2.	c #D3D3D3",
"3.	c #4B4B4A",
"4.	c #1E160E",
"5.	c #332214",
"6.	c #23201E",
"7.	c #767676",
"8.	c #C3C3C3",
"9.	c #676767",
"0.	c #050505",
"a.	c #1D1D1D",
"b.	c #A4A4A4",
"c.	c #C7C7C7",
"d.	c #D2D2D2",
"e.	c #282828",
"f.	c #6A6A6A",
"g.	c #616161",
"h.	c #B7B7B7",
"i.	c #CECECE",
"j.	c #A7A7A7",
"k.	c #101010",
"l.	c #B2B2B2",
"m.	c #DADADA",
"n.	c #7F7F7F",
"o.	c #171717",
"p.	c #0A0802",
"q.	c #1A1606",
"r.	c #1E1906",
"s.	c #120E04",
"t.	c #050504",
"u.	c #353535",
"v.	c #B4B4B4",
"w.	c #D8D8D8",
"x.	c #838383",
"y.	c #5F5F5F",
"z.	c #5A5A5A",
"A.	c #818181",
"B.	c #CFCFCF",
"C.	c #929292",
"D.	c #0D0D0D",
"E.	c #191919",
"F.	c #262626",
"G.	c #070707",
"H.	c #A2A2A2",
"I.	c #DCDCDC",
"J.	c #656565",
"K.	c #090704",
"L.	c #5B4D1C",
"M.	c #C1A13B",
"N.	c #EFC949",
"O.	c #FAD147",
"P.	c #D8B336",
"Q.	c #997E20",
"R.	c #241E07",
"S.	c #161616",
"T.	c #919191",
"U.	c #494949",
"V.	c #C1C1C1",
"W.	c #DBDBDB",
"X.	c #484848",
"Y.	c #E4E4E4",
"Z.	c #858585",
"`.	c #0B0A09",
" +	c #867230",
".+	c #FBD760",
"++	c #FFDD72",
"@+	c #FFDE79",
"#+	c #FFDA62",
"$+	c #FFD549",
"%+	c #DCB52E",
"&+	c #3C310C",
"*+	c #121212",
"=+	c #0D0C0D",
"-+	c #D5D5D5",
";+	c #424242",
">+	c #343434",
",+	c #373737",
"'+	c #1B1B1B",
")+	c #EEEEEE",
"!+	c #625424",
"~+	c #F8D463",
"{+	c #FFE184",
"]+	c #FFE69B",
"^+	c #FFE8A4",
"/+	c #FFE69C",
"(+	c #FFE185",
"_+	c #FFDB67",
":+	c #FCD244",
"<+	c #594912",
"[+	c #1B1A1B",
"}+	c #292829",
"|+	c #302F30",
"1+	c #2F2E2F",
"2+	c #272627",
"3+	c #A1A1A1",
"4+	c #686868",
"5+	c #A3A3A3",
"6+	c #090907",
"7+	c #CDAD48",
"8+	c #FFDF79",
"9+	c #FFE7A0",
"0+	c #FFEEC0",
"a+	c #FFF2D0",
"b+	c #FFEEC1",
"c+	c #FFE7A1",
"d+	c #FFDF7C",
"e+	c #CFB04B",
"f+	c #0E0C09",
"g+	c #1D1C1D",
"h+	c #333133",
"i+	c #444244",
"j+	c #4D4C4D",
"k+	c #4C4B4C",
"l+	c #414041",
"m+	c #181718",
"n+	c #EAEAEA",
"o+	c #404040",
"p+	c #363636",
"q+	c #FCFCFC",
"r+	c #2F270E",
"s+	c #F0CC55",
"t+	c #FFE081",
"u+	c #FFEAAB",
"v+	c #FFF3D2",
"w+	c #FFF9EC",
"x+	c #FFF3D4",
"y+	c #FFEAAC",
"z+	c #FFE183",
"A+	c #8F7C45",
"B+	c #151415",
"C+	c #2D2C2D",
"D+	c #464446",
"E+	c #5C5B5C",
"F+	c #6A696A",
"G+	c #676667",
"H+	c #565456",
"I+	c #3E3D3E",
"J+	c #242324",
"K+	c #474747",
"L+	c #F2F2F2",
"M+	c #747474",
"N+	c #5C5C5C",
"O+	c #595959",
"P+	c #FBFBFB",
"Q+	c #FFFFFF",
"R+	c #3D330F",
"S+	c #F5CF51",
"T+	c #FFF2CF",
"U+	c #544B33",
"V+	c #1A191A",
"W+	c #353435",
"X+	c #504F50",
"Y+	c #6B6A6B",
"Z+	c #828182",
"`+	c #615F61",
" @	c #454445",
".@	c #2B2B2B",
"+@	c #ECECEC",
"@@	c #222222",
"#@	c #797979",
"$@	c #201A06",
"%@	c #EAC23E",
"&@	c #FFDA64",
"*@	c #FFE69A",
"=@	c #FFE8A3",
"-@	c #FFDA66",
";@	c #37301A",
">@	c #333233",
",@	c #4E4C4E",
"'@	c #666566",
")@	c #767576",
"!@	c #706F70",
"~@	c #5A595A",
"{@	c #262526",
"]@	c #EDEDED",
"^@	c #E9E9E9",
"/@	c #4E4E4E",
"(@	c #3A3A3A",
"_@	c #AB8C24",
":@	c #FFD447",
"<@	c #FFD960",
"[@	c #FFDD71",
"}@	c #FEDD77",
"|@	c #EBCD6E",
"1@	c #CAAE56",
"2@	c #A58A33",
"3@	c #292209",
"4@	c #403E40",
"5@	c #525052",
"6@	c #5B5A5B",
"7@	c #575557",
"8@	c #484748",
"9@	c #F9F9F9",
"0@	c #3D3D3D",
"a@	c #3E3E3E",
"b@	c #606060",
"c@	c #434343",
"d@	c #272008",
"e@	c #D4AE2B",
"f@	c #FFD23B",
"g@	c #E9C241",
"h@	c #847032",
"i@	c #302A1B",
"j@	c #0F0E0A",
"k@	c #151104",
"l@	c #100D03",
"m@	c #2B292B",
"n@	c #383738",
"o@	c #3D3C3D",
"p@	c #3A393A",
"q@	c #1E1D1E",
"r@	c #FEFEFE",
"s@	c #1E1E1E",
"t@	c #4C4C4C",
"u@	c #CDCDCD",
"v@	c #1D1806",
"w@	c #A48621",
"x@	c #3D320C",
"y@	c #120F05",
"z@	c #6B591D",
"A@	c #BD9D32",
"B@	c #D7B237",
"C@	c #D1AC2F",
"D@	c #9C8020",
"E@	c #4A3D13",
"F@	c #131212",
"G@	c #1C1B1C",
"H@	c #201F20",
"I@	c #040301",
"J@	c #19160B",
"K@	c #BB9E3F",
"L@	c #FCD75F",
"M@	c #FFDB69",
"N@	c #FFDB68",
"O@	c #FFD85B",
"P@	c #F2C632",
"Q@	c #7B6519",
"R@	c #0B0905",
"S@	c #949494",
"T@	c #090806",
"U@	c #AC9241",
"V@	c #FEDC70",
"W@	c #FFE188",
"X@	c #FFE495",
"Y@	c #FFE493",
"Z@	c #FFE082",
"`@	c #F9CC32",
" #	c #6A5615",
".#	c #333333",
"+#	c #C6C6C6",
"@#	c #C2C2C2",
"##	c #3F361C",
"$#	c #FDDA68",
"%#	c #FFE28D",
"&#	c #FFEFC0",
"*#	c #FFEDBC",
"=#	c #FFD95C",
"-#	c #FFD239",
";#	c #D2AC2A",
">#	c #110D03",
",#	c #907B35",
"'#	c #FFDD74",
")#	c #FFEFC4",
"!#	c #FFF8E5",
"~#	c #FFF5DD",
"{#	c #FFEDB8",
"]#	c #FFE390",
"^#	c #FFDA67",
"/#	c #FFD33E",
"(#	c #F3C730",
"_#	c #32290A",
":#	c #636363",
"<#	c #FDFDFD",
"[#	c #9C9C9C",
"}#	c #AB9038",
"|#	c #FFE599",
"1#	c #FFEEBD",
"2#	c #FFF5DA",
"3#	c #FFF3D3",
"4#	c #FFEBB3",
"5#	c #FFE28C",
"6#	c #FFD33C",
"7#	c #F7CA31",
"8#	c #362C0B",
"9#	c #0E0D0C",
"0#	c #030302",
"a#	c #080706",
"b#	c #544E3E",
"c#	c #615B47",
"d#	c #403F3D",
"e#	c #DDDDDD",
"f#	c #8B7326",
"g#	c #FFDA61",
"h#	c #FFEBB1",
"i#	c #FFEAAD",
"j#	c #FFD754",
"k#	c #FFD135",
"l#	c #DBB32C",
"m#	c #171305",
"n#	c #AFAFAF",
"o#	c #343128",
"p#	c #ADA179",
"q#	c #A09573",
"r#	c #161510",
"s#	c #332D24",
"t#	c #F9E6B3",
"u#	c #FBE9AF",
"v#	c #8A7E5C",
"w#	c #4C4A48",
"x#	c #EBEBEB",
"y#	c #3C310D",
"z#	c #FAD047",
"A#	c #FFDF7A",
"B#	c #FFD23C",
"C#	c #FED033",
"D#	c #987D1E",
"E#	c #C8C8C8",
"F#	c #333029",
"G#	c #C2AE77",
"H#	c #FFEAA4",
"I#	c #EED69E",
"J#	c #3A2E25",
"K#	c #020201",
"L#	c #403C30",
"M#	c #655F4B",
"N#	c #474333",
"O#	c #2C231C",
"P#	c #6B4B41",
"Q#	c #D8B78A",
"R#	c #FFEAA2",
"S#	c #F5DE95",
"T#	c #695C3D",
"U#	c #696968",
"V#	c #F8F8F8",
"W#	c #050401",
"X#	c #94791F",
"Y#	c #FDD140",
"Z#	c #FFD64F",
"`#	c #FFD858",
" $	c #FFD756",
".$	c #FFD54A",
"+$	c #CCA729",
"@$	c #1E1806",
"#$	c #4D4D4D",
"$$	c #E2E2E2",
"%$	c #3D3C38",
"&$	c #9B8652",
"*$	c #FCE18C",
"=$	c #FFE794",
"-$	c #D8B480",
";$	c #936D57",
">$	c #6C5C44",
",$	c #908561",
"'$	c #B8AB81",
")$	c #7B7359",
"!$	c #070705",
"~$	c #D2C497",
"{$	c #FFEEB4",
"]$	c #F9E7A9",
"^$	c #EAD497",
"/$	c #E4C58B",
"($	c #F5DA91",
"_$	c #FFE692",
":$	c #FFE48B",
"<$	c #E3C576",
"[$	c #453A24",
"}$	c #919090",
"|$	c #FAFAFA",
"1$	c #0B0902",
"2$	c #7B6418",
"3$	c #F3C732",
"4$	c #FFD136",
"5$	c #C09E26",
"6$	c #2A2308",
"7$	c #565654",
"8$	c #705C33",
"9$	c #F2D171",
"0$	c #FFE17E",
"a$	c #FFE384",
"b$	c #FCE089",
"c$	c #F6DB8C",
"d$	c #FCE496",
"e$	c #FFE9A0",
"f$	c #FFEBA6",
"g$	c #C4B584",
"h$	c #0E0D0A",
"i$	c #776E4F",
"j$	c #FCE7A2",
"k$	c #FFE89D",
"l$	c #FFE796",
"m$	c #FFE58F",
"n$	c #FFE489",
"o$	c #FFE282",
"p$	c #FFE17B",
"q$	c #FDDC73",
"r$	c #C6A359",
"s$	c #2B2418",
"t$	c #080705",
"u$	c #211B06",
"v$	c #635114",
"w$	c #90761D",
"x$	c #836B1A",
"y$	c #473A0E",
"z$	c #8A8989",
"A$	c #48381E",
"B$	c #DCB458",
"C$	c #FEDB67",
"D$	c #FFDE6E",
"E$	c #FFDF75",
"F$	c #FFE382",
"G$	c #FFE68F",
"H$	c #F3DC8F",
"I$	c #453F2A",
"J$	c #17140D",
"K$	c #D8C27C",
"L$	c #FFE58D",
"M$	c #FFE486",
"N$	c #FFE27F",
"O$	c #FFE078",
"P$	c #FFDF72",
"Q$	c #FFDD6B",
"R$	c #FFDC64",
"S$	c #F0C85C",
"T$	c #9B793D",
"U$	c #2A2825",
"V$	c #F1F1F1",
"W$	c #666666",
"X$	c #231D10",
"Y$	c #B78C42",
"Z$	c #F4CB50",
"`$	c #FFD957",
" %	c #FFDA5D",
".%	c #FFE079",
"+%	c #C8AD69",
"@%	c #110D09",
"#%	c #30211A",
"$%	c #C8A368",
"%%	c #FFE17D",
"&%	c #FFE075",
"*%	c #FFDE6F",
"=%	c #FFDC68",
"-%	c #FFDB62",
";%	c #FFDA5B",
">%	c #FFD854",
",%	c #FDD44D",
"'%	c #D4A349",
")%	c #56411D",
"!%	c #616060",
"~%	c #060604",
"{%	c #745526",
"]%	c #D7A540",
"^%	c #FED340",
"/%	c #FFD547",
"(%	c #FFD74D",
"_%	c #FFDB61",
":%	c #FFDD68",
"<%	c #D2A864",
"[%	c #563F2C",
"}%	c #0A0805",
"|%	c #4F4527",
"1%	c #D6B467",
"2%	c #F6D36F",
"3%	c #FFDE6C",
"4%	c #FFDC66",
"5%	c #FFDB5F",
"6%	c #FFD958",
"7%	c #FFD852",
"8%	c #FFD64B",
"9%	c #FFD444",
"0%	c #FFD33D",
"a%	c #E8B73B",
"b%	c #A47837",
"c%	c #B6B6B6",
"d%	c #F6F6F6",
"e%	c #585858",
"f%	c #120D06",
"g%	c #AE7D3C",
"h%	c #EDBD37",
"i%	c #FFD134",
"j%	c #FFD238",
"k%	c #FFD544",
"l%	c #FFD752",
"m%	c #FEDB65",
"n%	c #F6D269",
"o%	c #66582D",
"p%	c #433A1E",
"q%	c #D0B457",
"r%	c #FDDA63",
"s%	c #FFDA5C",
"t%	c #FFD856",
"u%	c #FFD74F",
"v%	c #FFD548",
"w%	c #FFD441",
"x%	c #F8C934",
"y%	c #BD8841",
"z%	c #291D0E",
"A%	c #020200",
"B%	c #303030",
"C%	c #030200",
"D%	c #392816",
"E%	c #BD8741",
"F%	c #FACB34",
"G%	c #FFD33B",
"H%	c #FFD442",
"I%	c #FED64F",
"J%	c #ECC850",
"K%	c #8D7934",
"L%	c #1C180B",
"M%	c #191609",
"N%	c #786529",
"O%	c #D1AE40",
"P%	c #F8CE45",
"Q%	c #FDD13F",
"R%	c #BB8541",
"S%	c #50371E",
"T%	c #020100",
"U%	c #010100",
"V%	c #5B3F23",
"W%	c #B98442",
"X%	c #FACC34",
"Y%	c #FBCD34",
"Z%	c #F6C736",
"`%	c #D3AB33",
" &	c #8D7426",
".&	c #342B0F",
"+&	c #010000",
"@&	c #171306",
"#&	c #493B12",
"$&	c #9C7C25",
"%&	c #DBAD34",
"&&	c #EBBB37",
"*&	c #F1C136",
"=&	c #F6C735",
"-&	c #F7C835",
";&	c #E3B239",
">&	c #B47E43",
",&	c #5C4023",
"'&	c #030201",
")&	c #5C4024",
"!&	c #B27C44",
"~&	c #E5B439",
"{&	c #E5B538",
"]&	c #DFAD39",
"^&	c #CB9D36",
"/&	c #9D7A28",
"(&	c #503F14",
"_&	c #1A1406",
":&	c #060501",
"<&	c #1E1708",
"[&	c #4D3A16",
"}&	c #785A24",
"|&	c #966F2F",
"1&	c #A57836",
"2&	c #A4743C",
"3&	c #8E6336",
"4&	c #2E2011",
"5&	c #191209",
"6&	c #6E4D2A",
"7&	c #684A25",
"8&	c #563E1D",
"9&	c #342610",
"0&	c #171107",
"a&	c #080602",
"b&	c #070502",
"c&	c #090703",
"d&	c #0D0904",
"e&	c #080603",
"f&	c #080702",
"                                        . + @ # $ %                                       ",
"                                  & * = - ; ; > , ' ) !                                   ",
"                                ~ { ] ^ / ( _ : < [ / } ~                                 ",
"                              ~ & | 1 2 3 4 & 4 5 6 7 ) { ~                               ",
"                              ~ 5 8 9 0 a 3 ~ = b 9 c d ( ~ ~                             ",
"                            ~ 4 e f g h i j % k l ! m n o { ~                             ",
"                            ~ % p q ~ ~ r s ! t u ~ { v w x ~                             ",
"                            ~ { y z A B C f 4 D E F G H I ~ ~                             ",
"                            ~ ~ J K L M N O P Q R d S k J ~ ~                             ",
"                            ~ ~ ~ g T U V W X Y Z `  .$ ~ ~ ~                             ",
"                            ~ ~ ~ ~ ..+.@.@.@.@.#.$.%.~ ~ ~ ~                             ",
"                        ~ ~ ~ ~ & &.*.=.-.;.@.>.,.'.).m { ~ ~ ~                           ",
"                      4 ~ ~ ~ !.f ~.{.].^./.(._.:.<.[.}.|.* ~ ~ & {                       ",
"                    ! 4 ~ h I s 1.1.2.w 3.4.5.6.7.n 1.1.1.8.9.0.{ g &                     ",
"                ~ + ! ~ a.D 2.1.1.1.1.1.c b.|.c.1.1.1.1.1.1.d.6 } x m 4                   ",
"              ~ ^ &.~ e.k 1.1.c.o f.g.|.h.i.1.1.1.1.1.1.1.1.1.1.j.m . @ 4                 ",
"            ~ k.( { / l.m.2.n.o.p.q.r.s.t.u.v.w.1.i x.y.z.A.K B.M C.D.E.F.&               ",
"            . | G.} H.d I.J.K.L.M.N.O.P.Q.R.S.T.g.} { { ~ ~ g U.V.W.A x !.e.~             ",
"          x X.o.{ g.Y.8 Z.`. +.+++@+++#+$+%+&+x 0.D.*+*+=+x ~ ~ e.l.-+_ 4 ;+a.            ",
"        ~ >+,+~ '+c )+2.a.!+~+{+]+^+/+(+_+:+<+$ [+}+|+1+2+E.G.~ ~ ( -+3+G.] ' .           ",
"        } y.$ ~ 4+H H 5+6+7+8+9+0+a+b+c+d+e+f+g+h+i+j+k+l+1+m+4 ~ { G n+F.~ u.5 ~         ",
"        o+p+~ 4 p q+q+J.r+s+t+u+v+w+x+y+z+A+B+C+D+E+F+G+H+I+J+! ~ ~ K+L+M+~ g N+]         ",
"      % O+$ ~ *+P+Q+Q+O+R+S+8+9+0+T+b+c+d+U+V+W+X+Y+Z+> `+ @}+] ~ ~ .@+@8.x ~ >+)         ",
"      @@;+~ ~ < Q+Q+Q+#@$@%@&@z+*@=@]+{+-@;@m+>@,@'@)@!@~@l+{@! ~ ~ !.]@^@% ~ D./@{       ",
"      (@'+~ ~ = Q+Q+Q+K g _@:@<@[@}@|@1@2@3@k.}+4@5@6@7@8@>@V+& ~ ~ ' q+9@g ~ ~ 0@*+      ",
"      a@4 ~ ~ b@Q+Q+Q+S c@d@e@f@g@h@i@j@k@l@0.# m@n@o@p@1+q@G.~ ~ { D Q+r@$ ~ ~ s@@       ",
"      [ ~ ~ ~ t@Q+Q+Q+Q+u@F.v@w@x@y@z@A@B@C@D@E@F@G@H@q@J % ~ ~ ~ ,+^@Q+9@g ~ ~ ! a.      ",
"    $ ! ~ ~ ~ !.Q+Q+Q+Q+Q+m.o+I@J@K@L@M@N@O@:@P@Q@R@x 4 { ~ ~ ~ * i.Q+Q+n+% ~ ~ ~ %       ",
"      ~ ~ ~ ~ k.P+Q+Q+Q+Q+Q+S@T@U@V@W@X@Y@Z@N@:@`@ #~ ~ ~ ~ ~ .#+#Q+Q+Q+0 x ~ ~ ~ ~       ",
"      ~ ~ ~ ~ x @#Q+Q+Q+Q+Q+X.##$#%#y+&#*#^+Z@=#-#;#>#o.: z.v S Q+Q+Q+Q+x.~ ~ ~ ~ ~       ",
"        ~ ~ ~ ~ 7.Q+Q+Q+Q+n+h ,#'#/+)#!#~#{#]#^#/#(#_#:#Q+Q+Q+Q+Q+Q+Q+<#: ~ ~ ~ ~         ",
"            ~ ~ &.[#z Q+Q+m.$ }#[@|#1#2#3#4#5#&@6#7#8#u Q+Q+Q+Q+Q+Q+<#j.9#0#~             ",
"            ~ a#b#c#d#e#Q+)+} f#g#z+9+h#i#|#8+j#k#l#m#7 Q+Q+Q+Q+Q+r@n#o#p#q#r#            ",
"              s#t#u#v#w#x#Q+a@y#z#&@A#(+z+'#O@B#C#D#. i.Q+Q+Q+Q+Q+E#F#G#H#I#J#~ ~ ~ ~     ",
"    K#L#M#N#O#P#Q#R#S#T#U#V#v W#X#Y#Z#`# $.$-#@.+$@$#$S Q+Q+Q+Q+$$%$&$*$=$-$;$>$,$'$)$!$  ",
"    r#~${$]$^$/$($_$:$<$[$}$|$O+1$2$3$4$k#@.C#5$6$!.W.Q+Q+Q+Q+H 7$8$9$0$a$b$c$d$e$f$g$h$  ",
"    0#i$j$k$l$m$n$o$p$q$r$s$V.S A t$u$v$w$x$y$p.< u@Q+Q+Q+Q+r@z$A$B$C$D$E$p$F$n$G$H$I$    ",
"      J$K$L$M$N$O$P$Q$R$S$T$U$V$q+p W$* G.. ,+S@L Q+Q+Q+Q+<#K X$Y$Z$`$ %R$Q$P$.%N$+%@%    ",
"    K##%$%%%&%*%=%-%;%>%,%'%)%!%n+<#Q+q+L+V#Q+Q+Q+Q+Q+q+I.J.~%{%]%^%/%(%>%;%_%:%*%<%[%}%  ",
"    |%1%2%3%4%5%6%7%8%9%0%a%b%I@* J.c%d a V#P+d%]@W.b.e%+ ~ f%g%h%i%j%0%k%8%l%6%5%m%n%o%  ",
"    p%q%r%s%t%u%v%w%f@4$i%x%y%z%A%~ { S.B%| X.0@.@} ~ ~ ~ C%D%E%F%@.@.@.4$G%H%v%I%J%K%L%  ",
"      M%N%O%P%Q%-#k#@.@.@.#.R%S%T%~ ~ ~ ~ ~ ~ ~ ~ ~ ~ ~ ~ U%V%W%X%@.@.@.@.Y%Z%`% &.&I@    ",
"        +&@&#&$&%&&&*&=&-&;&>&,&~ ~ ~                     '&)&!&(.~&{&]&^&/&(&_&A%        ",
"              :&<&[&}&|&1&2&3&4&                            5&V%6&7&8&9&0&a&              ",
"                    T%b&c&d&e&f&                                U%T%                      "};
